SplineFontDB: 3.0
FontName: Journey_Glyph_WIP
FullName: Journey_Glyph_WIP
FamilyName: Journey Glyph WIP
Weight: Regular
Copyright: Copyright (c) 2017, mirror12k
UComments: "2017-9-7: Created with FontForge (http://fontforge.org)"
Version: 001.000
ItalicAngle: 0
UnderlinePosition: -100
UnderlineWidth: 50
Ascent: 800
Descent: 200
InvalidEm: 0
LayerCount: 2
Layer: 0 0 "Back" 1
Layer: 1 0 "Fore" 0
XUID: [1021 477 -1252527436 8278373]
OS2Version: 0
OS2_WeightWidthSlopeOnly: 0
OS2_UseTypoMetrics: 1
CreationTime: 1504817616
ModificationTime: 1504984766
OS2TypoAscent: 0
OS2TypoAOffset: 1
OS2TypoDescent: 0
OS2TypoDOffset: 1
OS2TypoLinegap: 0
OS2WinAscent: 0
OS2WinAOffset: 1
OS2WinDescent: 0
OS2WinDOffset: 1
HheadAscent: 0
HheadAOffset: 1
HheadDescent: 0
HheadDOffset: 1
OS2Vendor: 'PfEd'
MarkAttachClasses: 1
DEI: 91125
Encoding: ISO8859-1
UnicodeInterp: none
NameList: AGL For New Fonts
DisplaySize: -48
AntiAlias: 1
FitToEm: 0
WinInfo: 0 27 10
BeginPrivate: 0
EndPrivate
Grid
500 300 m 1
 300 300 l 1
 300 500 l 1
 500 500 l 1
 500 300 l 1
400 200 m 29
 573.205078125 300 l 29
 573.205078125 500 l 29
 400 600 l 29
 226.794921875 500 l 29
 226.794921875 300 l 29
 400 200 l 29
400 0 m 25
 746.41015625 200 l 25
 746.41015625 600 l 25
 400 800 l 25
 53.58984375 600 l 25
 53.58984375 200 l 25
 400 0 l 25
600 600 m 1
 600 200 l 1
 200 200 l 1
 200 600 l 1
 600 600 l 1
  Spiro
    600 600 v
    600 200 v
    200 200 v
    200 600 v
    0 0 z
  EndSpiro
100 100 m 1
 100 700 l 1
 700 700 l 1
 700 100 l 1
 100 100 l 1
  Spiro
    100 100 v
    100 700 v
    700 700 v
    700 100 v
    0 0 z
  EndSpiro
0 400 m 25
 800 400 l 1025
  Spiro
    0 400 {
    800 400 v
    0 0 z
  EndSpiro
400 800 m 25
 400 0 l 1025
  Spiro
    400 800 {
    400 0 v
    0 0 z
  EndSpiro
EndSplineSet
BeginChars: 256 242

StartChar: A
Encoding: 65 65 0
Width: 800
VWidth: 0
Flags: HW
LayerCount: 2
Fore
SplineSet
320 400 m 0
 320 443.924804688 356.076171875 480 400 480 c 0
 443.924804688 480 480 443.923828125 480 400 c 0
 480 356.075195312 443.923828125 320 400 320 c 0
 356.075195312 320 320 356.076171875 320 400 c 0
251.50790406 194.939361565 m 1
 289.855566228 233.287023733 l 1
 310.831864401 219.353101692 334.555652309 209.263750736 360 204.045900815 c 1
 360 150 l 1
 440 150 l 1
 440 204.045900815 l 1
 465.444347691 209.263750736 489.168135599 219.353101692 510.144433772 233.287023733 c 1
 548.49209594 194.939361565 l 1
 605.060638435 251.50790406 l 1
 566.712976267 289.855566228 l 1
 580.646898308 310.831864401 590.736249264 334.555652309 595.954099185 360 c 1
 650 360 l 1
 650 440 l 1
 595.954099185 440 l 1
 590.736249264 465.444347691 580.646898308 489.168135599 566.712976267 510.144433772 c 1
 605.060638435 548.49209594 l 1
 548.49209594 605.060638435 l 1
 510.144433772 566.712976267 l 1
 489.168135599 580.646898308 465.444347691 590.736249264 440 595.954099185 c 1
 440 650 l 1
 360 650 l 1
 360 595.954099185 l 1
 334.555652309 590.736249264 310.831864401 580.646898308 289.855566228 566.712976267 c 1
 251.50790406 605.060638435 l 1
 194.939361565 548.49209594 l 1
 233.287023733 510.144433772 l 1
 219.353101692 489.168135599 209.263750736 465.444347691 204.045900815 440 c 1
 150 440 l 1
 150 360 l 1
 204.045900815 360 l 1
 209.263750736 334.555652309 219.353101692 310.831864401 233.287023733 289.855566228 c 1
 194.939361565 251.50790406 l 1
 251.50790406 194.939361565 l 1
360 400 m 0
 360 378.253689338 378.253012925 360 400 360 c 0
 421.746310662 360 440 378.253012925 440 400 c 0
 440 421.746310662 421.746987075 440 400 440 c 0
 378.253689338 440 360 421.746987075 360 400 c 0
626.220224429 320 m 5
 623.685997722 312.931393806 620.802285375 305.719129817 616.488112537 296.648972453 c 5
 661.62918093 251.50790406 l 5
 548.49209594 138.37081907 l 5
 503.351027547 183.511887463 l 5
 496.060238084 180.044061647 488.946796264 176.987368328 480 173.779775571 c 5
 480 110 l 5
 320 110 l 5
 320 173.779775571 l 5
 312.931393806 176.314002278 305.719129817 179.197714625 296.648972453 183.511887463 c 5
 251.50790406 138.37081907 l 5
 138.37081907 251.50790406 l 5
 183.511887463 296.648972453 l 5
 180.044061647 303.939761916 176.987368328 311.053203736 173.779775571 320 c 5
 110 320 l 5
 110 480 l 5
 173.779775571 480 l 5
 176.314002278 487.068606194 179.197714625 494.280870183 183.511887463 503.351027547 c 5
 138.37081907 548.49209594 l 5
 251.50790406 661.62918093 l 5
 296.648972453 616.488112537 l 5
 303.939761916 619.955938353 311.053203736 623.012631672 320 626.220224429 c 5
 320 690 l 5
 480 690 l 5
 480 626.220224429 l 5
 487.068606194 623.685997722 494.280870183 620.802285375 503.351027547 616.488112537 c 5
 548.49209594 661.62918093 l 5
 661.62918093 548.49209594 l 5
 616.488112537 503.351027547 l 5
 619.955938353 496.060238084 623.012631672 488.946796264 626.220224429 480 c 5
 690 480 l 5
 690 320 l 5
 626.220224429 320 l 5
EndSplineSet
EndChar

StartChar: zero
Encoding: 48 48 35
Width: 800
VWidth: 0
Flags: HW
LayerCount: 2
Fore
SplineSet
400 695.19921875 m 0
 395.6796875 695.19921875 395.6796875 693.759765625 394.240234375 692.373046875 c 1
 290.734375 560.068359375 l 1
 290.734375 560.068359375 284.798828125 548.3203125 287.6796875 542.560546875 c 24
 290.55859375 536.80078125 294.880859375 536.80078125 302.080078125 536.80078125 c 1
 361.982421875 536.80078125 l 1
 361.982421875 119.19921875 l 9
 362.55859375 114.880859375 362.55859375 112 364.576171875 109.12109375 c 24
 365.439453125 106.240234375 370.623046875 104.80078125 370.623046875 104.80078125 c 1
 400 104.80078125 l 1
 429.376953125 104.80078125 l 1
 429.376953125 104.80078125 434.55859375 106.240234375 435.423828125 109.12109375 c 24
 437.439453125 112 437.439453125 114.880859375 438.015625 119.19921875 c 17
 438.015625 536.80078125 l 1
 497.919921875 536.80078125 l 1
 505.12109375 536.80078125 509.439453125 536.80078125 512.3203125 542.560546875 c 24
 515.19921875 548.3203125 509.265625 560.068359375 509.265625 560.068359375 c 1
 405.759765625 692.373046875 l 1
 404.3203125 693.759765625 402.880859375 695.19921875 400 695.19921875 c 0
468.658581061 86.5340251734 m 0
 455.528950887 68.1069398361 443.878494807 67.4251977331 441.576399132 66.7028719571 c 0
 439.13374614 65.9364436816 437.582632297 65.4526648167 435.505040179 64.80078125 c 2
 429.376953125 64.80078125 l 1
 400 64.80078125 l 1
 370.623046875 64.80078125 l 1
 364.496981552 64.80078125 l 1
 359.486747953 66.3722926293 l 1
 359.486747953 66.3722926293 345.247688033 67.1564019021 332.66658641 84.8241498251 c 0
 322.064010484 99.9530916592 322.33377585 113.909146123 322.33377585 113.909146123 c 1
 321.982421875 116.542514391 l 1
 321.982421875 119.19921875 l 1
 321.982421875 496.80078125 l 1
 302.080078125 496.80078125 l 2
 298.702716821 496.80078125 265.712687917 497.042456994 251.900173637 524.676856324 c 0
 234.790639143 558.884325627 254.775754176 577.590594717 254.775754176 577.590594717 c 2
 255.497151716 579.060000145 256.025589918 580.135313632 256.663635345 581.434940207 c 2
 259.229906299 584.715234468 l 1
 362.735765674 717.019921968 l 1
 364.466128097 719.231729697 l 2
 365.186303632 719.925521596 373.440072226 727.876913321 373.440072226 727.876913321 c 2
 383.493583409 737.089354736 393.13624972 735.19921875 400 735.19921875 c 0
 418.598978071 735.19921875 432.803032927 721.862524368 433.511441588 721.180068262 c 2
 435.533871903 719.231729697 l 1
 437.264234326 717.019921968 l 1
 540.770093701 584.715234468 l 1
 543.337961436 581.432899147 l 1
 544.806852958 578.439963062 l 1
 544.806852958 578.439963062 566.063869062 560.617128997 548.099826363 524.676856324 c 0
 534.279086663 497.044746916 501.306924864 496.80078125 497.919921875 496.80078125 c 2
 478.015625 496.80078125 l 1
 478.015625 119.19921875 l 1
 478.015625 116.542514391 l 1
 477.664271025 113.909146123 l 2
 477.60189286 113.441627061 477.540449451 102.220522619 468.658581061 86.5340251734 c 0
EndSplineSet
EndChar

StartChar: one
Encoding: 49 49 36
Width: 800
VWidth: 0
Flags: HW
LayerCount: 2
Fore
SplineSet
695.19921875 400 m 0
 695.19921875 404.3203125 693.759765625 404.3203125 692.373046875 405.759765625 c 1
 560.068359375 509.265625 l 1
 560.068359375 509.265625 548.3203125 515.201171875 542.560546875 512.3203125 c 24
 536.80078125 509.44140625 536.80078125 505.119140625 536.80078125 497.919921875 c 1
 536.80078125 438.017578125 l 1
 119.19921875 438.017578125 l 9
 114.880859375 437.44140625 112 437.44140625 109.12109375 435.423828125 c 24
 106.240234375 434.560546875 104.80078125 429.376953125 104.80078125 429.376953125 c 1
 104.80078125 400 l 1
 104.80078125 370.623046875 l 1
 104.80078125 370.623046875 106.240234375 365.44140625 109.12109375 364.576171875 c 24
 112 362.560546875 114.880859375 362.560546875 119.19921875 361.984375 c 17
 536.80078125 361.984375 l 1
 536.80078125 302.080078125 l 1
 536.80078125 294.87890625 536.80078125 290.560546875 542.560546875 287.6796875 c 24
 548.3203125 284.80078125 560.068359375 290.734375 560.068359375 290.734375 c 1
 692.373046875 394.240234375 l 1
 693.759765625 395.6796875 695.19921875 397.119140625 695.19921875 400 c 0
86.5341796875 331.341796875 m 0
 68.107421875 344.470703125 67.4248046875 356.12109375 66.703125 358.423828125 c 0
 65.9365234375 360.866210938 65.453125 362.416992188 64.80078125 364.495117188 c 2
 64.80078125 370.623046875 l 1
 64.80078125 400 l 1
 64.80078125 429.376953125 l 1
 64.80078125 435.502929688 l 1
 66.3720703125 440.513671875 l 1
 66.3720703125 440.513671875 67.15625 454.751953125 84.82421875 467.333007812 c 0
 99.953125 477.935546875 113.909179688 477.666015625 113.909179688 477.666015625 c 1
 116.54296875 478.017578125 l 1
 119.19921875 478.017578125 l 1
 496.80078125 478.017578125 l 1
 496.80078125 497.919921875 l 2
 496.80078125 501.296875 497.041992188 534.287109375 524.676757812 548.099609375 c 0
 558.884765625 565.208984375 577.590820312 545.224609375 577.590820312 545.224609375 c 2
 579.059570312 544.502929688 580.135742188 543.974609375 581.434570312 543.3359375 c 2
 584.71484375 540.770507812 l 1
 717.01953125 437.264648438 l 1
 719.231445312 435.534179688 l 2
 719.92578125 434.813476562 727.876953125 426.559570312 727.876953125 426.559570312 c 2
 737.088867188 416.506835938 735.19921875 406.86328125 735.19921875 400 c 0
 735.19921875 381.401367188 721.862304688 367.197265625 721.1796875 366.48828125 c 2
 719.231445312 364.465820312 l 1
 717.01953125 362.735351562 l 1
 584.71484375 259.229492188 l 1
 581.432617188 256.662109375 l 1
 578.440429688 255.193359375 l 1
 578.440429688 255.193359375 560.6171875 233.936523438 524.676757812 251.900390625 c 0
 497.044921875 265.720703125 496.80078125 298.693359375 496.80078125 302.080078125 c 2
 496.80078125 321.984375 l 1
 119.19921875 321.984375 l 1
 116.54296875 321.984375 l 1
 113.909179688 322.3359375 l 2
 113.44140625 322.3984375 102.220703125 322.459960938 86.5341796875 331.341796875 c 0
EndSplineSet
EndChar

StartChar: two
Encoding: 50 50 37
Width: 800
VWidth: 0
Flags: HW
LayerCount: 2
Fore
SplineSet
400 104.80078125 m 0
 404.3203125 104.80078125 404.3203125 106.240234375 405.759765625 107.626953125 c 1
 509.265625 239.931640625 l 1
 509.265625 239.931640625 515.201171875 251.6796875 512.3203125 257.439453125 c 24
 509.44140625 263.19921875 505.119140625 263.19921875 497.919921875 263.19921875 c 1
 438.017578125 263.19921875 l 1
 438.017578125 680.80078125 l 9
 437.44140625 685.119140625 437.44140625 688 435.423828125 690.87890625 c 24
 434.560546875 693.759765625 429.376953125 695.19921875 429.376953125 695.19921875 c 1
 400 695.19921875 l 1
 370.623046875 695.19921875 l 1
 370.623046875 695.19921875 365.44140625 693.759765625 364.576171875 690.87890625 c 24
 362.560546875 688 362.560546875 685.119140625 361.984375 680.80078125 c 17
 361.984375 263.19921875 l 1
 302.080078125 263.19921875 l 1
 294.87890625 263.19921875 290.560546875 263.19921875 287.6796875 257.439453125 c 24
 284.80078125 251.6796875 290.734375 239.931640625 290.734375 239.931640625 c 1
 394.240234375 107.626953125 l 1
 395.6796875 106.240234375 397.119140625 104.80078125 400 104.80078125 c 0
331.341796875 713.465820312 m 0
 344.470703125 731.892578125 356.12109375 732.575195312 358.423828125 733.296875 c 0
 360.866210938 734.063476562 362.416992188 734.546875 364.495117188 735.19921875 c 2
 370.623046875 735.19921875 l 1
 400 735.19921875 l 1
 429.376953125 735.19921875 l 1
 435.502929688 735.19921875 l 1
 440.513671875 733.627929688 l 1
 440.513671875 733.627929688 454.751953125 732.84375 467.333007812 715.17578125 c 0
 477.935546875 700.046875 477.666015625 686.090820312 477.666015625 686.090820312 c 1
 478.017578125 683.45703125 l 1
 478.017578125 680.80078125 l 1
 478.017578125 303.19921875 l 1
 497.919921875 303.19921875 l 2
 501.296875 303.19921875 534.287109375 302.958007812 548.099609375 275.323242188 c 0
 565.208984375 241.115234375 545.224609375 222.409179688 545.224609375 222.409179688 c 2
 544.502929688 220.940429688 543.974609375 219.864257812 543.3359375 218.565429688 c 2
 540.770507812 215.28515625 l 1
 437.264648438 82.98046875 l 1
 435.534179688 80.7685546875 l 2
 434.813476562 80.07421875 426.559570312 72.123046875 426.559570312 72.123046875 c 2
 416.506835938 62.9111328125 406.86328125 64.80078125 400 64.80078125 c 0
 381.401367188 64.80078125 367.197265625 78.1376953125 366.48828125 78.8203125 c 2
 364.465820312 80.7685546875 l 1
 362.735351562 82.98046875 l 1
 259.229492188 215.28515625 l 1
 256.662109375 218.567382812 l 1
 255.193359375 221.559570312 l 1
 255.193359375 221.559570312 233.936523438 239.3828125 251.900390625 275.323242188 c 0
 265.720703125 302.955078125 298.693359375 303.19921875 302.080078125 303.19921875 c 2
 321.984375 303.19921875 l 1
 321.984375 680.80078125 l 1
 321.984375 683.45703125 l 1
 322.3359375 686.090820312 l 2
 322.3984375 686.55859375 322.459960938 697.779296875 331.341796875 713.465820312 c 0
EndSplineSet
EndChar

StartChar: three
Encoding: 51 51 38
Width: 800
VWidth: 0
Flags: HW
LayerCount: 2
Fore
SplineSet
104.80078125 400 m 0
 104.80078125 395.6796875 106.240234375 395.6796875 107.626953125 394.240234375 c 1
 239.931640625 290.734375 l 1
 239.931640625 290.734375 251.6796875 284.798828125 257.439453125 287.6796875 c 24
 263.19921875 290.55859375 263.19921875 294.880859375 263.19921875 302.080078125 c 1
 263.19921875 361.982421875 l 1
 680.80078125 361.982421875 l 9
 685.119140625 362.55859375 688 362.55859375 690.87890625 364.576171875 c 24
 693.759765625 365.439453125 695.19921875 370.623046875 695.19921875 370.623046875 c 1
 695.19921875 400 l 1
 695.19921875 429.376953125 l 1
 695.19921875 429.376953125 693.759765625 434.55859375 690.87890625 435.423828125 c 24
 688 437.439453125 685.119140625 437.439453125 680.80078125 438.015625 c 17
 263.19921875 438.015625 l 1
 263.19921875 497.919921875 l 1
 263.19921875 505.12109375 263.19921875 509.439453125 257.439453125 512.3203125 c 24
 251.6796875 515.19921875 239.931640625 509.265625 239.931640625 509.265625 c 1
 107.626953125 405.759765625 l 1
 106.240234375 404.3203125 104.80078125 402.880859375 104.80078125 400 c 0
713.465820312 468.658203125 m 0
 731.892578125 455.529296875 732.575195312 443.87890625 733.296875 441.576171875 c 0
 734.063476562 439.133789062 734.546875 437.583007812 735.19921875 435.504882812 c 2
 735.19921875 429.376953125 l 1
 735.19921875 400 l 1
 735.19921875 370.623046875 l 1
 735.19921875 364.497070312 l 1
 733.627929688 359.486328125 l 1
 733.627929688 359.486328125 732.84375 345.248046875 715.17578125 332.666992188 c 0
 700.046875 322.064453125 686.090820312 322.333984375 686.090820312 322.333984375 c 1
 683.45703125 321.982421875 l 1
 680.80078125 321.982421875 l 1
 303.19921875 321.982421875 l 1
 303.19921875 302.080078125 l 2
 303.19921875 298.703125 302.958007812 265.712890625 275.323242188 251.900390625 c 0
 241.115234375 234.791015625 222.409179688 254.775390625 222.409179688 254.775390625 c 2
 220.940429688 255.497070312 219.864257812 256.025390625 218.565429688 256.6640625 c 2
 215.28515625 259.229492188 l 1
 82.98046875 362.735351562 l 1
 80.7685546875 364.465820312 l 2
 80.07421875 365.186523438 72.123046875 373.440429688 72.123046875 373.440429688 c 2
 62.9111328125 383.493164062 64.80078125 393.13671875 64.80078125 400 c 0
 64.80078125 418.598632812 78.1376953125 432.802734375 78.8203125 433.51171875 c 2
 80.7685546875 435.534179688 l 1
 82.98046875 437.264648438 l 1
 215.28515625 540.770507812 l 1
 218.567382812 543.337890625 l 1
 221.559570312 544.806640625 l 1
 221.559570312 544.806640625 239.3828125 566.063476562 275.323242188 548.099609375 c 0
 302.955078125 534.279296875 303.19921875 501.306640625 303.19921875 497.919921875 c 2
 303.19921875 478.015625 l 1
 680.80078125 478.015625 l 1
 683.45703125 478.015625 l 1
 686.090820312 477.6640625 l 2
 686.55859375 477.6015625 697.779296875 477.540039062 713.465820312 468.658203125 c 0
EndSplineSet
EndChar

StartChar: four
Encoding: 52 52 39
Width: 800
VWidth: 0
Flags: HW
LayerCount: 2
Fore
SplineSet
400 695.19921875 m 0
 395.6796875 695.19921875 395.6796875 693.759765625 394.240234375 692.373046875 c 1
 290.734375 560.068359375 l 1
 290.734375 560.068359375 284.798828125 548.3203125 287.6796875 542.560546875 c 24
 290.55859375 536.80078125 294.880859375 536.80078125 302.080078125 536.80078125 c 1
 361.982421875 536.80078125 l 1
 361.982421875 119.19921875 l 9
 362.55859375 114.880859375 362.55859375 112 364.576171875 109.12109375 c 24
 365.439453125 106.240234375 370.623046875 104.80078125 370.623046875 104.80078125 c 1
 400 104.80078125 l 1
 429.376953125 104.80078125 l 1
 429.376953125 104.80078125 434.55859375 106.240234375 435.423828125 109.12109375 c 24
 437.439453125 112 437.439453125 114.880859375 438.015625 119.19921875 c 17
 438.015625 536.80078125 l 1
 497.919921875 536.80078125 l 1
 505.12109375 536.80078125 509.439453125 536.80078125 512.3203125 542.560546875 c 24
 515.19921875 548.3203125 509.265625 560.068359375 509.265625 560.068359375 c 1
 405.759765625 692.373046875 l 1
 404.3203125 693.759765625 402.880859375 695.19921875 400 695.19921875 c 0
EndSplineSet
EndChar

StartChar: five
Encoding: 53 53 40
Width: 800
VWidth: 0
Flags: HW
LayerCount: 2
Fore
SplineSet
695.19921875 400 m 0
 695.19921875 404.3203125 693.759765625 404.3203125 692.373046875 405.759765625 c 1
 560.068359375 509.265625 l 1
 560.068359375 509.265625 548.3203125 515.201171875 542.560546875 512.3203125 c 24
 536.80078125 509.44140625 536.80078125 505.119140625 536.80078125 497.919921875 c 1
 536.80078125 438.017578125 l 1
 119.19921875 438.017578125 l 9
 114.880859375 437.44140625 112 437.44140625 109.12109375 435.423828125 c 24
 106.240234375 434.560546875 104.80078125 429.376953125 104.80078125 429.376953125 c 1
 104.80078125 400 l 1
 104.80078125 370.623046875 l 1
 104.80078125 370.623046875 106.240234375 365.44140625 109.12109375 364.576171875 c 24
 112 362.560546875 114.880859375 362.560546875 119.19921875 361.984375 c 17
 536.80078125 361.984375 l 1
 536.80078125 302.080078125 l 1
 536.80078125 294.87890625 536.80078125 290.560546875 542.560546875 287.6796875 c 24
 548.3203125 284.80078125 560.068359375 290.734375 560.068359375 290.734375 c 1
 692.373046875 394.240234375 l 1
 693.759765625 395.6796875 695.19921875 397.119140625 695.19921875 400 c 0
EndSplineSet
EndChar

StartChar: six
Encoding: 54 54 41
Width: 800
VWidth: 0
Flags: HW
LayerCount: 2
Fore
SplineSet
400.000976562 104.80078125 m 0
 404.3203125 104.80078125 404.3203125 106.240234375 405.760742188 107.626953125 c 1
 509.266601562 239.931640625 l 1
 509.266601562 239.931640625 515.201171875 251.6796875 512.3203125 257.439453125 c 24
 509.44140625 263.19921875 505.120117188 263.19921875 497.920898438 263.19921875 c 1
 438.017578125 263.19921875 l 1
 438.017578125 680.80078125 l 9
 437.44140625 685.119140625 437.44140625 688 435.424804688 690.87890625 c 24
 434.560546875 693.759765625 429.377929688 695.19921875 429.377929688 695.19921875 c 1
 400.000976562 695.19921875 l 1
 370.624023438 695.19921875 l 1
 370.624023438 695.19921875 365.44140625 693.759765625 364.577148438 690.87890625 c 24
 362.560546875 688 362.560546875 685.119140625 361.984375 680.80078125 c 17
 361.984375 263.19921875 l 1
 302.080078125 263.19921875 l 1
 294.879882812 263.19921875 290.560546875 263.19921875 287.680664062 257.439453125 c 24
 284.80078125 251.6796875 290.735351562 239.931640625 290.735351562 239.931640625 c 1
 394.241210938 107.626953125 l 1
 395.680664062 106.240234375 397.120117188 104.80078125 400.000976562 104.80078125 c 0
EndSplineSet
EndChar

StartChar: seven
Encoding: 55 55 42
Width: 800
VWidth: 0
Flags: HW
LayerCount: 2
Fore
SplineSet
104.80078125 400 m 0
 104.80078125 395.6796875 106.240234375 395.6796875 107.626953125 394.240234375 c 1
 239.931640625 290.734375 l 1
 239.931640625 290.734375 251.6796875 284.798828125 257.439453125 287.6796875 c 24
 263.19921875 290.55859375 263.19921875 294.880859375 263.19921875 302.080078125 c 1
 263.19921875 361.982421875 l 1
 680.80078125 361.982421875 l 9
 685.119140625 362.55859375 688 362.55859375 690.87890625 364.576171875 c 24
 693.759765625 365.439453125 695.19921875 370.623046875 695.19921875 370.623046875 c 1
 695.19921875 400 l 1
 695.19921875 429.376953125 l 1
 695.19921875 429.376953125 693.759765625 434.55859375 690.87890625 435.423828125 c 24
 688 437.439453125 685.119140625 437.439453125 680.80078125 438.015625 c 17
 263.19921875 438.015625 l 1
 263.19921875 497.919921875 l 1
 263.19921875 505.12109375 263.19921875 509.439453125 257.439453125 512.3203125 c 24
 251.6796875 515.19921875 239.931640625 509.265625 239.931640625 509.265625 c 1
 107.626953125 405.759765625 l 1
 106.240234375 404.3203125 104.80078125 402.880859375 104.80078125 400 c 0
EndSplineSet
EndChar

StartChar: eight
Encoding: 56 56 43
Width: 800
VWidth: 0
Flags: HW
LayerCount: 2
Fore
SplineSet
80 400 m 4
 80 223.200195312 223.200195312 80 400 80 c 4
 576.799804688 80 720 223.200195312 720 400 c 4
 720 576.799804688 576.799804688 720 400 720 c 4
 223.200195312 720 80 576.799804688 80 400 c 4
0 400 m 0
 0 621 179 800 400 800 c 0
 621 800 800 621 800 400 c 0
 800 179 621 0 400 0 c 0
 179 0 0 179 0 400 c 0
EndSplineSet
EndChar

StartChar: nine
Encoding: 57 57 44
Width: 800
VWidth: 0
Flags: HW
LayerCount: 2
Fore
SplineSet
160 720 m 6
 116 720 80 684 80 640 c 6
 80 160 l 6
 80 116 116 80 160 80 c 6
 640 80 l 6
 684 80 720 116 720 160 c 6
 720 640 l 6
 720 684 684 720 640 720 c 6
 160 720 l 6
100 800 m 2
 700 800 l 2
 755 800 800 755 800 700 c 2
 800 100 l 2
 800 45 755 0 700 0 c 2
 100 0 l 2
 45 0 0 45 0 100 c 2
 0 700 l 2
 0 755 45 800 100 800 c 2
EndSplineSet
EndChar

StartChar: colon
Encoding: 58 58 45
Width: 800
VWidth: 0
Flags: HW
LayerCount: 2
Fore
SplineSet
823.448242188 180.006835938 m 6
 440.259765625 843.709960938 l 6
 440.259765625 843.709960938 421.168945312 876.084960938 400 876.084960938 c 28
 378.831054688 876.084960938 359.740234375 843.709960938 359.740234375 843.709960938 c 6
 -23.4482421875 180.0078125 l 6
 -23.4482421875 180.0078125 -41.9423828125 147.287109375 -31.35546875 128.956054688 c 28
 -20.7705078125 110.62109375 16.814453125 110.278320312 16.814453125 110.278320312 c 6
 783.185546875 110.27734375 l 6
 783.185546875 110.27734375 820.771484375 110.620117188 831.35546875 128.954101562 c 28
 841.9375 147.287109375 823.448242188 180.006835938 823.448242188 180.006835938 c 6
922.772460938 136.518554688 m 6
 922.772460938 136.518554688 945.603515625 96.125 932.5390625 73.4892578125 c 28
 919.470703125 50.85546875 873.068359375 50.4306640625 873.068359375 50.4306640625 c 6
 -73.068359375 50.4326171875 l 6
 -73.068359375 50.4326171875 -119.469726562 50.8583984375 -132.5390625 73.4912109375 c 28
 -145.606445312 96.125 -122.772460938 136.521484375 -122.772460938 136.521484375 c 6
 350.295898438 955.905273438 l 6
 350.295898438 955.905273438 373.865234375 995.875 400 995.875 c 28
 426.134765625 995.875 449.704101562 955.905273438 449.704101562 955.905273438 c 6
 922.772460938 136.518554688 l 6
EndSplineSet
EndChar

StartChar: semicolon
Encoding: 59 59 46
Width: 800
VWidth: 0
Flags: HW
LayerCount: 2
Fore
SplineSet
0 400 m 0
 0 621 179 800 400 800 c 0
 621 800 800 621 800 400 c 0
 800 179 621 0 400 0 c 0
 179 0 0 179 0 400 c 0
195.904451677 153.478044806 m 5
 251.288818 107.580736347 322.408722186 80 400 80 c 4
 576.799804688 80 720 223.200195312 720 400 c 4
 720 477.591277814 692.419263653 548.711182 646.521955194 604.095548323 c 5
 195.904451677 153.478044806 l 5
604.095548323 646.521955194 m 5
 548.711182 692.419263653 477.591277814 720 400 720 c 4
 223.200195312 720 80 576.799804688 80 400 c 4
 80 322.408722186 107.580736347 251.288818 153.478044806 195.904451677 c 5
 604.095548323 646.521955194 l 5
EndSplineSet
EndChar

StartChar: less
Encoding: 60 60 47
Width: 800
VWidth: 0
Flags: HW
LayerCount: 2
Fore
SplineSet
723.999023438 121.819335938 m 6
 736.959960938 109.209960938 736.490234375 88.6318359375 724 76 c 4
 711.509765625 63.3681640625 690.790039062 63.0400390625 678.180664062 76.0009765625 c 6
 400 354.180664062 l 5
 121.819335938 76.0009765625 l 6
 109.209960938 63.0400390625 88.490234375 63.3681640625 76 76 c 4
 63.3681640625 88.490234375 63.0400390625 109.209960938 76.0009765625 121.819335938 c 6
 354.180664062 400 l 5
 76.0009765625 678.180664062 l 6
 63.0400390625 690.790039062 63.3681640625 711.509765625 76 724 c 4
 88.490234375 736.631835938 109.209960938 736.959960938 121.819335938 723.999023438 c 6
 400 445.819335938 l 5
 678.180664062 723.999023438 l 6
 690.790039062 736.959960938 711.368164062 736.490234375 724 724 c 4
 736.631835938 711.509765625 736.959960938 690.790039062 723.999023438 678.180664062 c 6
 445.819335938 400 l 5
 723.999023438 121.819335938 l 6
EndSplineSet
EndChar

StartChar: equal
Encoding: 61 61 48
Width: 800
VWidth: 0
Flags: HW
LayerCount: 2
Fore
SplineSet
626.799804688 205.2734375 m 6
 635.872070312 196.447265625 635.54296875 182.041992188 626.799804688 173.200195312 c 4
 618.056640625 164.357421875 603.552734375 164.127929688 594.7265625 173.201171875 c 6
 400 367.926757812 l 5
 205.2734375 173.201171875 l 6
 196.447265625 164.127929688 181.943359375 164.357421875 173.200195312 173.200195312 c 4
 164.357421875 181.943359375 164.127929688 196.447265625 173.201171875 205.2734375 c 6
 367.926757812 400 l 5
 173.201171875 594.7265625 l 6
 164.127929688 603.552734375 164.357421875 618.056640625 173.200195312 626.799804688 c 4
 181.943359375 635.642578125 196.447265625 635.872070312 205.2734375 626.799804688 c 6
 400 432.073242188 l 5
 594.7265625 626.799804688 l 6
 603.552734375 635.872070312 617.958007812 635.54296875 626.799804688 626.799804688 c 4
 635.642578125 618.056640625 635.872070312 603.552734375 626.799804688 594.7265625 c 6
 432.073242188 400 l 5
 626.799804688 205.2734375 l 6
EndSplineSet
EndChar

StartChar: greater
Encoding: 62 62 49
Width: 800
VWidth: 0
Flags: HW
LayerCount: 2
Fore
SplineSet
336 700 m 5
 346 700 l 5
 346 655.108398438 382 666.326171875 382 600 c 4
 382 538.891601562 346 551.40625 346 500 c 4
 346 455.108398438 382 466.326171875 382 400 c 5
 372 400 l 5
 362 400 l 5
 362 451.40625 326 438.891601562 326 500 c 4
 326 566.326171875 362 555.108398438 362 600 c 4
 362 651.40625 326 638.891601562 326 700 c 5
 336 700 l 5
428 700 m 5
 438 700 l 5
 438 655.108398438 474 666.326171875 474 600 c 4
 474 538.891601562 438 551.40625 438 500 c 4
 438 455.108398438 474 466.326171875 474 400 c 5
 464 400 l 5
 454 400 l 5
 454 451.40625 418 438.891601562 418 500 c 4
 418 566.326171875 454 555.108398438 454 600 c 4
 454 651.40625 418 638.891601562 418 700 c 5
 428 700 l 5
382 700 m 5
 392 700 l 5
 392 655.108398438 428 666.326171875 428 600 c 4
 428 538.891601562 392 551.40625 392 500 c 4
 392 455.108398438 428 466.326171875 428 400 c 5
 418 400 l 5
 408 400 l 5
 408 451.40625 372 438.891601562 372 500 c 4
 372 566.326171875 408 555.108398438 408 600 c 4
 408 651.40625 372 638.891601562 372 700 c 5
 382 700 l 5
EndSplineSet
EndChar

StartChar: B
Encoding: 66 66 52
Width: 800
VWidth: 0
Flags: HW
LayerCount: 2
Fore
SplineSet
320 400 m 0
 320 356.076171875 356.075195312 320 400 320 c 0
 443.923828125 320 480 356.075195312 480 400 c 0
 480 443.923828125 443.924804688 480 400 480 c 0
 356.076171875 480 320 443.924804688 320 400 c 0
360 400 m 4
 360 421.746987075 378.253689338 440 400 440 c 4
 421.746987075 440 440 421.746310662 440 400 c 4
 440 378.253012925 421.746310662 360 400 360 c 4
 378.253012925 360 360 378.253689338 360 400 c 4
626.220224429 320 m 1
 623.685997722 312.931393806 620.802285375 305.719129817 616.488112537 296.648972453 c 1
 661.62918093 251.50790406 l 1
 548.49209594 138.37081907 l 1
 503.351027547 183.511887463 l 1
 496.060238084 180.044061647 488.946796264 176.987368328 480 173.779775571 c 1
 480 110 l 1
 320 110 l 1
 320 173.779775571 l 1
 312.931393806 176.314002278 305.719129817 179.197714625 296.648972453 183.511887463 c 1
 251.50790406 138.37081907 l 1
 138.37081907 251.50790406 l 1
 183.511887463 296.648972453 l 1
 180.044061647 303.939761916 176.987368328 311.053203736 173.779775571 320 c 1
 110 320 l 1
 110 480 l 1
 173.779775571 480 l 1
 176.314002278 487.068606194 179.197714625 494.280870183 183.511887463 503.351027547 c 1
 138.37081907 548.49209594 l 1
 251.50790406 661.62918093 l 1
 296.648972453 616.488112537 l 1
 303.939761916 619.955938353 311.053203736 623.012631672 320 626.220224429 c 1
 320 690 l 1
 480 690 l 1
 480 626.220224429 l 1
 487.068606194 623.685997722 494.280870183 620.802285375 503.351027547 616.488112537 c 1
 548.49209594 661.62918093 l 1
 661.62918093 548.49209594 l 1
 616.488112537 503.351027547 l 1
 619.955938353 496.060238084 623.012631672 488.946796264 626.220224429 480 c 1
 690 480 l 1
 690 320 l 1
 626.220224429 320 l 1
EndSplineSet
EndChar

StartChar: C
Encoding: 67 67 53
Width: 800
VWidth: 0
Flags: HW
LayerCount: 2
Fore
SplineSet
530.604492188 642.239257812 m 29
 484.784179688 596.418945312 l 29
 501.555664062 533.826171875 l 29
 564.1484375 517.0546875 l 29
 609.96875 562.875 l 29
 638.89453125 562.284179688 l 5
 636.798828125 539.885742188 627.221679688 518.072265625 610.166992188 501.017578125 c 4
 584.131835938 474.982421875 547.005859375 466.375 513.638671875 475.19921875 c 5
 239.2421875 200.801757812 l 6
 229.340820312 190.901367188 213.78515625 190.90234375 203.88671875 200.801757812 c 6
 168.53125 236.157226562 l 6
 158.631835938 246.055664062 158.630859375 261.61328125 168.53125 271.512695312 c 6
 442.926757812 545.909179688 l 5
 434.104492188 579.276367188 442.711914062 616.40234375 468.747070312 642.4375 c 4
 485.801757812 659.4921875 507.615234375 669.068359375 530.013671875 671.165039062 c 5
 530.604492188 642.239257812 l 29
EndSplineSet
EndChar

StartChar: D
Encoding: 68 68 54
Width: 800
VWidth: 0
Flags: HW
LayerCount: 2
Fore
SplineSet
180.913085938 208.624023438 m 5
 241.107421875 268.818359375 l 21
 198.681640625 311.245117188 l 5
 221.309570312 333.873046875 l 5
 249.592773438 305.587890625 l 5
 532.435546875 588.431640625 l 5
 617.2890625 616.715820312 l 5
 589.004882812 531.862304688 l 5
 306.162109375 249.01953125 l 5
 334.446289062 220.736328125 l 5
 311.818359375 198.108398438 l 5
 269.392578125 240.534179688 l 13
 209.197265625 180.33984375 l 5
 200.37890625 171.521484375 191.893554688 172.086914062 183.407226562 180.572265625 c 28
 175.6015625 188.377929688 171.985351562 199.697265625 180.913085938 208.624023438 c 5
306.162109375 271.647460938 m 21
 575.020507812 540.505859375 l 5
 591.990234375 592.216796875 l 5
 289.19140625 289.41796875 l 29
 306.162109375 271.647460938 l 21
EndSplineSet
EndChar

StartChar: E
Encoding: 69 69 55
Width: 800
VWidth: 0
Flags: HW
LayerCount: 2
Fore
SplineSet
227.5 561 m 29
 572.5 561 l 29
 550 313.5 l 29
 400 186 l 29
 250 311 l 29
 227.5 561 l 29
399.745117188 238.28125 m 5
 510 331.998046875 l 5
 526.5 521 l 5
 400 521 l 5
 399.745117188 238.28125 l 5
EndSplineSet
EndChar

StartChar: F
Encoding: 70 70 56
Width: 800
VWidth: 0
Flags: HW
LayerCount: 2
Fore
SplineSet
400 180 m 5
 180 290 l 5
 180 510 l 5
 400 620 l 5
 620 510 l 5
 620 290 l 5
 400 180 l 5
390 227.360351562 m 1
 390 393.74609375 l 1
 220 476.516601562 l 1
 220 312.360351562 l 1
 390 227.360351562 l 1
231.270507812 493.274414062 m 1
 400 411.122070312 l 1
 568.729492188 493.274414062 l 1
 400 577.638671875 l 1
 231.270507812 493.274414062 l 1
580 476.516601562 m 1
 410 393.74609375 l 1
 410 227.360351562 l 1
 580 312.360351562 l 1
 580 476.516601562 l 1
EndSplineSet
EndChar

StartChar: G
Encoding: 71 71 57
Width: 800
VWidth: 0
Flags: HW
LayerCount: 2
Fore
SplineSet
400 180 m 1
 180 290 l 1
 180 510 l 1
 400 620 l 1
 620 510 l 1
 620 290 l 1
 400 180 l 1
231.270507812 493.274414062 m 1
 400 411.122070312 l 1
 568.729492188 493.274414062 l 1
 400 577.638671875 l 1
 231.270507812 493.274414062 l 1
580 476.516601562 m 1
 410 393.74609375 l 1
 410 227.360351562 l 1
 580 312.360351562 l 1
 580 476.516601562 l 1
EndSplineSet
EndChar

StartChar: H
Encoding: 72 72 58
Width: 800
VWidth: 0
Flags: HW
LayerCount: 2
Fore
SplineSet
245.316643891 400 m 5
 276.24286628 411.213603631 334.352718201 420 400 420 c 4
 465.820263344 420 525.275294067 410.663130697 554.683356109 400 c 5
 523.75713372 388.786396369 465.647281799 380 400 380 c 4
 334.179736656 380 274.724705933 389.336869303 245.316643891 400 c 5
567.81640625 372.883789062 m 5
 554.705850721 292.229887995 484.164326577 230 400 230 c 4
 315.834876807 230 245.294115452 292.230557718 232.18359375 372.883789062 c 5
 267.921875 359.137695312 329.900390625 350 400 350 c 4
 470.099609375 350 532.077148438 359.137695312 567.81640625 372.883789062 c 5
200 400 m 5
 200 290 290 200 400 200 c 4
 510 200 600 290 600 400 c 5
 600 427.5 510 450 400 450 c 4
 290 450 200 427.5 200 400 c 5
EndSplineSet
EndChar

StartChar: I
Encoding: 73 73 59
Width: 800
VWidth: 0
Flags: HW
LayerCount: 2
Fore
SplineSet
245.316643891 400 m 1
 276.24286628 411.213603631 334.352718201 420 400 420 c 0
 465.820263344 420 525.275294067 410.663130697 554.683356109 400 c 1
 523.75713372 388.786396369 465.647281799 380 400 380 c 0
 334.179736656 380 274.724705933 389.336869303 245.316643891 400 c 1
200 400 m 1
 200 290 290 200 400 200 c 0
 510 200 600 290 600 400 c 1
 600 427.5 510 450 400 450 c 0
 290 450 200 427.5 200 400 c 1
EndSplineSet
EndChar

StartChar: J
Encoding: 74 74 60
Width: 800
VWidth: 0
Flags: HW
LayerCount: 2
Fore
SplineSet
534.252929688 389.306640625 m 5
 505.662109375 378.310546875 456.080078125 371 400 371 c 4
 343.919921875 371 294.337890625 378.310546875 265.747070312 389.306640625 c 5
 276.235351562 324.784179688 332.66796875 275 400 275 c 4
 467.331054688 275 523.764648438 324.784179688 534.252929688 389.306640625 c 5
468.751953125 266.62109375 m 5
 447.89453125 256.61328125 424.571289062 251 400 251 c 4
 375.364257812 251 351.982421875 256.642578125 331.083007812 266.700195312 c 5
 294.995117188 263.150390625 264.774414062 257.055664062 245.31640625 250 c 5
 274.724609375 239.336914062 334.1796875 230 400 230 c 4
 465.647460938 230 523.756835938 238.786132812 554.68359375 250 c 5
 536.072265625 256.748046875 505.427734375 262.96484375 468.751953125 266.62109375 c 5
276.252929688 411 m 5
 299.779296875 402.469726562 347.34375 395 400 395 c 4
 452.517578125 395 499.005859375 402.029296875 523.747070312 411 c 5
 500.220703125 419.530273438 452.65625 427 400 427 c 4
 347.482421875 427 300.994140625 419.970703125 276.252929688 411 c 5
241.5625 388.6796875 m 5
 227.732421875 383.229492188 220 371.993164062 220 362 c 4
 220 348.1953125 234.780273438 332 260 332 c 5
 250.172851562 349.177734375 244.434570312 368.334960938 241.5625 388.6796875 c 5
240.009765625 409.182617188 m 5
 240.00390625 409.788085938 240 410.393554688 240 411 c 4
 240 433 312 451 400 451 c 4
 488 451 560 433 560 411 c 4
 560 363.990234375 539.453125 321.546875 506.897460938 292.206054688 c 5
 562.75390625 283.3125 600 267.69140625 600 250 c 4
 600 222.5 510 200 400 200 c 4
 290 200 200 222.5 200 250 c 4
 200 267.69140625 237.24609375 283.3125 293.102539062 292.206054688 c 5
 285.9765625 298.627929688 279.42578125 305.678710938 273.540039062 313.266601562 c 5
 269.185546875 312.4375 264.65234375 312 260 312 c 4
 227 312 200 334 200 362 c 4
 200 384.060546875 216.759765625 402.396484375 240.009765625 409.182617188 c 5
EndSplineSet
EndChar

StartChar: K
Encoding: 75 75 61
Width: 800
VWidth: 0
Flags: HW
LayerCount: 2
Fore
SplineSet
468.751953125 266.62109375 m 1
 447.89453125 256.61328125 424.571289062 251 400 251 c 0
 375.364257812 251 351.982421875 256.642578125 331.083007812 266.700195312 c 1
 294.995117188 263.150390625 264.774414062 257.055664062 245.31640625 250 c 1
 274.724609375 239.336914062 334.1796875 230 400 230 c 0
 465.647460938 230 523.756835938 238.786132812 554.68359375 250 c 1
 536.072265625 256.748046875 505.427734375 262.96484375 468.751953125 266.62109375 c 1
276.252929688 411 m 1
 299.779296875 402.469726562 347.34375 395 400 395 c 0
 452.517578125 395 499.005859375 402.029296875 523.747070312 411 c 1
 500.220703125 419.530273438 452.65625 427 400 427 c 0
 347.482421875 427 300.994140625 419.970703125 276.252929688 411 c 1
241.5625 388.6796875 m 1
 227.732421875 383.229492188 220 371.993164062 220 362 c 0
 220 348.1953125 234.780273438 332 260 332 c 1
 250.172851562 349.177734375 244.434570312 368.334960938 241.5625 388.6796875 c 1
240.009765625 409.182617188 m 1
 240.00390625 409.788085938 240 410.393554688 240 411 c 0
 240 433 312 451 400 451 c 0
 488 451 560 433 560 411 c 0
 560 363.990234375 539.453125 321.546875 506.897460938 292.206054688 c 1
 562.75390625 283.3125 600 267.69140625 600 250 c 0
 600 222.5 510 200 400 200 c 0
 290 200 200 222.5 200 250 c 0
 200 267.69140625 237.24609375 283.3125 293.102539062 292.206054688 c 1
 285.9765625 298.627929688 279.42578125 305.678710938 273.540039062 313.266601562 c 1
 269.185546875 312.4375 264.65234375 312 260 312 c 0
 227 312 200 334 200 362 c 0
 200 384.060546875 216.759765625 402.396484375 240.009765625 409.182617188 c 1
EndSplineSet
EndChar

StartChar: L
Encoding: 76 76 62
Width: 800
VWidth: 0
Flags: HW
LayerCount: 2
Fore
SplineSet
400 400 m 29
 309.490234375 400 l 29
 309.490234375 428.284179688 l 29
 400 428.284179688 l 29
 400 400 l 29
301.490234375 464 m 29
 237.490234375 528 l 5
 217.490234375 508 l 5
 261.490234375 464 l 29
 217.490234375 420 l 29
 237.490234375 400 l 29
 301.490234375 464 l 29
200 600 m 2
 600 600 l 2
 628 600 650 578 650 550 c 2
 650 250 l 2
 650 222 628 200 600 200 c 2
 200 200 l 2
 172 200 150 222 150 250 c 2
 150 550 l 2
 150 578 172 600 200 600 c 2
200 550 m 1
 200 250 l 1
 600 250 l 1
 600 550 l 1
 200 550 l 1
EndSplineSet
EndChar

StartChar: M
Encoding: 77 77 63
Width: 800
VWidth: 0
Flags: HW
LayerCount: 2
Fore
SplineSet
562 339 m 1
 602.5 339 l 2
 615 339 625 329.099609375 625 316.5 c 2
 625 271.5 l 2
 625 258.900390625 615.099609375 249 602.5 249 c 2
 562 249 l 1
 562 213 l 1
 238 213 l 1
 238 249 l 1
 197.5 249 l 2
 184.900390625 249 175 258.900390625 175 271.5 c 2
 175 316.5 l 2
 175 329.099609375 185 339 197.5 339 c 2
 239 339 l 1
 238 339 l 1
 238 375 l 1
 197.5 375 l 2
 184.900390625 375 175 384.900390625 175 397.5 c 2
 175 442.5 l 2
 175 455.099609375 185 465 197.5 465 c 2
 239 465 l 1
 238 465 l 1
 238 501 l 1
 197.5 501 l 2
 184.900390625 501 175 510.900390625 175 523.5 c 2
 175 568.5 l 2
 175 581.099609375 184.900390625 591 197.5 591 c 2
 602.5 591 l 2
 615.099609375 591 625 581.099609375 625 568.5 c 2
 625 523.5 l 2
 625 510.900390625 615.099609375 501 602.5 501 c 2
 562 501 l 1
 562 465 l 1
 602.5 465 l 2
 615 465 625 455.099609375 625 442.5 c 2
 625 397.5 l 2
 625 384.900390625 615.099609375 375 602.5 375 c 2
 562 375 l 1
 562 339 l 1
241.599609375 555 m 0
 241.599609375 558.599609375 244.299804688 561.299804688 247.900390625 561.299804688 c 0
 251.5 561.299804688 254.200195312 558.599609375 254.200195312 555 c 0
 254.200195312 551.400390625 251.5 548.700195312 247.900390625 548.700195312 c 0
 244.299804688 548.700195312 241.599609375 551.400390625 241.599609375 555 c 0
223.599609375 555 m 4
 223.599609375 558.599609375 226.299804688 561.299804688 229.900390625 561.299804688 c 4
 233.5 561.299804688 236.200195312 558.599609375 236.200195312 555 c 4
 236.200195312 551.400390625 233.5 548.700195312 229.900390625 548.700195312 c 4
 226.299804688 548.700195312 223.599609375 551.400390625 223.599609375 555 c 4
205.599609375 555 m 4
 205.599609375 558.599609375 208.299804688 561.299804688 211.900390625 561.299804688 c 4
 215.5 561.299804688 218.200195312 558.599609375 218.200195312 555 c 4
 218.200195312 551.400390625 215.5 548.700195312 211.900390625 548.700195312 c 4
 208.299804688 548.700195312 205.599609375 551.400390625 205.599609375 555 c 4
197.5 568.5 m 1
 197.5 523.5 l 1
 602.5 523.5 l 1
 602.5 568.5 l 1
 197.5 568.5 l 1
241.599609375 429 m 0
 241.599609375 432.599609375 244.299804688 435.299804688 247.900390625 435.299804688 c 0
 251.5 435.299804688 254.200195312 432.599609375 254.200195312 429 c 0
 254.200195312 425.400390625 251.5 422.700195312 247.900390625 422.700195312 c 0
 244.299804688 422.700195312 241.599609375 425.400390625 241.599609375 429 c 0
223.599609375 429 m 0
 223.599609375 432.599609375 226.299804688 435.299804688 229.900390625 435.299804688 c 0
 233.5 435.299804688 236.200195312 432.599609375 236.200195312 429 c 0
 236.200195312 425.400390625 233.5 422.700195312 229.900390625 422.700195312 c 0
 226.299804688 422.700195312 223.599609375 425.400390625 223.599609375 429 c 0
205.599609375 429 m 0
 205.599609375 432.599609375 208.299804688 435.299804688 211.900390625 435.299804688 c 0
 215.5 435.299804688 218.200195312 432.599609375 218.200195312 429 c 0
 218.200195312 425.400390625 215.5 422.700195312 211.900390625 422.700195312 c 0
 208.299804688 422.700195312 205.599609375 425.400390625 205.599609375 429 c 0
197.5 442.5 m 1
 197.5 397.5 l 1
 602.5 397.5 l 1
 602.5 442.5 l 1
 197.5 442.5 l 1
241.599609375 303 m 0
 241.599609375 306.599609375 244.299804688 309.299804688 247.900390625 309.299804688 c 0
 251.5 309.299804688 254.200195312 306.599609375 254.200195312 303 c 0
 254.200195312 299.400390625 251.5 296.700195312 247.900390625 296.700195312 c 0
 244.299804688 296.700195312 241.599609375 299.400390625 241.599609375 303 c 0
223.599609375 303 m 0
 223.599609375 306.599609375 226.299804688 309.299804688 229.900390625 309.299804688 c 0
 233.5 309.299804688 236.200195312 306.599609375 236.200195312 303 c 0
 236.200195312 299.400390625 233.5 296.700195312 229.900390625 296.700195312 c 0
 226.299804688 296.700195312 223.599609375 299.400390625 223.599609375 303 c 0
205.599609375 303 m 0
 205.599609375 306.599609375 208.299804688 309.299804688 211.900390625 309.299804688 c 0
 215.5 309.299804688 218.200195312 306.599609375 218.200195312 303 c 0
 218.200195312 299.400390625 215.5 296.700195312 211.900390625 296.700195312 c 0
 208.299804688 296.700195312 205.599609375 299.400390625 205.599609375 303 c 0
197.5 316.5 m 1
 197.5 271.5 l 1
 602.5 271.5 l 1
 602.5 316.5 l 1
 197.5 316.5 l 1
EndSplineSet
EndChar

StartChar: N
Encoding: 78 78 64
Width: 800
VWidth: 0
Flags: HW
LayerCount: 2
Fore
SplineSet
293.918945312 423.6796875 m 0
 293.918945312 429.439453125 298.239257812 433.759765625 304 433.759765625 c 0
 309.759765625 433.759765625 314.080078125 429.439453125 314.080078125 423.6796875 c 0
 314.080078125 417.919921875 309.759765625 413.599609375 304 413.599609375 c 0
 298.239257812 413.599609375 293.918945312 417.919921875 293.918945312 423.6796875 c 0
325.119140625 576.479492188 m 0
 325.119140625 582.239257812 329.439453125 586.559570312 335.200195312 586.559570312 c 0
 340.958984375 586.559570312 345.279296875 582.239257812 345.279296875 576.479492188 c 0
 345.279296875 570.720703125 340.958984375 566.400390625 335.200195312 566.400390625 c 0
 329.439453125 566.400390625 325.119140625 570.720703125 325.119140625 576.479492188 c 0
293.918945312 576.479492188 m 0
 293.918945312 582.239257812 298.239257812 586.559570312 304 586.559570312 c 0
 309.759765625 586.559570312 314.080078125 582.239257812 314.080078125 576.479492188 c 0
 314.080078125 570.720703125 309.759765625 566.400390625 304 566.400390625 c 0
 298.239257812 566.400390625 293.918945312 570.720703125 293.918945312 576.479492188 c 0
280 280 m 1
 520 280 l 1
 520 600 l 1
 280 600 l 1
 280 280 l 1
180 160 m 2
 168.799804688 160 160 168.799804688 160 180 c 0
 160 191.200195312 168.799804688 200 180 200 c 2
 380 200 l 1
 380 240 l 1
 280 240 l 2
 257.599609375 240 240 257.599609375 240 280 c 2
 240 600 l 2
 240 622.400390625 257.599609375 640 280 640 c 2
 520 640 l 2
 542.400390625 640 560 622.400390625 560 600 c 2
 560 280 l 2
 560 257.599609375 542.400390625 240 520 240 c 2
 420 240 l 1
 420 200 l 1
 620 200 l 2
 631.200195312 200 640 191.200195312 640 180 c 0
 640 168.799804688 631.200195312 160 620 160 c 2
 180 160 l 2
EndSplineSet
EndChar

StartChar: O
Encoding: 79 79 65
Width: 800
VWidth: 0
Flags: HW
LayerCount: 2
Fore
SplineSet
368 599.0625 m 5
 432 599.0625 l 5
 432 615.9375 l 5
 368 615.9375 l 5
 368 599.0625 l 5
520 600 m 2
 520 200 l 2
 520 177.599609375 502.400390625 160 480 160 c 2
 320 160 l 2
 297.599609375 160 280 177.599609375 280 200 c 2
 280 600 l 2
 280 622.400390625 297.599609375 640 320 640 c 2
 480 640 l 2
 502.400390625 640 520 622.400390625 520 600 c 2
500 580 m 1
 300 580 l 1
 300 220 l 1
 368.009765625 220 434.592773438 220 500 220 c 1
 500 580 l 1
EndSplineSet
EndChar

StartChar: P
Encoding: 80 80 66
Width: 800
VWidth: 0
Flags: HW
LayerCount: 2
Fore
SplineSet
450.099609375 190.299804688 m 1
 558.099609375 299.900390625 l 1
 450.099609375 299.900390625 l 1
 450.099609375 190.299804688 l 1
430.099609375 200 m 25
 430.099609375 319.900390625 l 1
 550 320 l 25
 550 600 l 1
 250 600 l 1
 250 200 l 1
 430.099609375 200 l 25
598.900390625 299.099609375 m 1
 448.5 151.099609375 l 1
 225 150 l 2
 211.004882812 149.930664062 200 161 200 175 c 2
 200 625 l 2
 200 639 211 650 225 650 c 2
 575 650 l 2
 589 650 600.046875 639.008789062 600 625 c 2
 598.900390625 299.099609375 l 1
EndSplineSet
EndChar

StartChar: Q
Encoding: 81 81 67
Width: 800
VWidth: 0
Flags: HW
LayerCount: 2
Fore
SplineSet
378 554.400390625 m 5
 565 554.400390625 l 2
 597.910564379 554.400390625 624.400390625 527.911132812 624.400390625 495 c 2
 624.400390625 297 l 2
 624.400390625 264.087890625 597.911132812 237.599609375 565 237.599609375 c 2
 235 237.599609375 l 2
 202.087890625 237.599609375 175.599609375 264.088867188 175.599609375 297 c 2
 175.599609375 528 l 2
 175.599609375 560.797851562 202.215589239 587.400390625 235 587.400390625 c 2
 324.640625 587.400390625 l 6
 347.456054688 587.400390625 366.138671875 576.596679688 378 554.400390625 c 5
220 517.5 m 1
 220 307.5 l 2
 220 290.700195312 233.200195312 277.5 250 277.5 c 2
 550 277.5 l 2
 566.799804688 277.5 580 290.700195312 580 307.5 c 2
 580 487.5 l 2
 580 504.299804688 566.799804688 517.5 550 517.5 c 2
 220 517.5 l 1
339.192382812 524.5703125 m 1
 336.0859375 537.859375 324.357421875 547.5 310 547.5 c 2
 250 547.5 l 2
 235.875 547.5 224.020507812 537.721679688 220.838867188 524.5703125 c 1
 339.192382812 524.5703125 l 1
EndSplineSet
EndChar

StartChar: R
Encoding: 82 82 68
Width: 800
VWidth: 0
Flags: HW
LayerCount: 2
Fore
SplineSet
438.176757812 392.725585938 m 5
 400 374.400390625 l 5
 361.587890625 392.400390625 l 5
 247 234 l 5
 553 234 l 5
 438.176757812 392.725585938 l 5
454.900390625 399.599609375 m 5
 580 234 l 5
 625 234 l 6
 650.182617188 234 670 253.799804688 670 279 c 6
 670 504 l 5
 454.900390625 399.599609375 l 5
345.099609375 399.599609375 m 5
 220 234 l 5
 175 234 l 6
 149.83984375 234 130 253.799804688 130 279 c 6
 130 504 l 5
 345.099609375 399.599609375 l 5
400 401.400390625 m 5
 130 531 l 5
 130 549 l 6
 130 574.200195312 149.799804688 594 175 594 c 6
 625 594 l 6
 650.200195312 594 670 574.200195312 670 549 c 6
 670 531 l 5
 400 401.400390625 l 5
EndSplineSet
EndChar

StartChar: S
Encoding: 83 83 69
Width: 800
VWidth: 0
Flags: HW
LayerCount: 2
Fore
SplineSet
159.900390625 612.822265625 m 2
 640.099609375 612.822265625 l 2
 666.991210938 612.822265625 688.120117188 591.693359375 688.120117188 564.802734375 c 2
 688.120117188 264.197265625 l 2
 688.120117188 237.306640625 666.991210938 216.177734375 640.099609375 216.177734375 c 2
 159.900390625 216.177734375 l 2
 133.008789062 216.177734375 111.879882812 237.306640625 111.879882812 264.197265625 c 2
 111.879882812 564.802734375 l 2
 111.879882812 591.693359375 133.008789062 612.822265625 159.900390625 612.822265625 c 2
438.176757812 392.725585938 m 1
 400 374.400390625 l 1
 361.587890625 392.400390625 l 1
 247 234 l 1
 553 234 l 1
 438.176757812 392.725585938 l 1
454.900390625 399.599609375 m 1
 580 234 l 1
 625 234 l 2
 650.182617188 234 670 253.799804688 670 279 c 2
 670 504 l 1
 454.900390625 399.599609375 l 1
345.099609375 399.599609375 m 1
 130 504 l 1
 130 279 l 2
 130 253.799804688 149.83984375 234 175 234 c 2
 220 234 l 1
 345.099609375 399.599609375 l 1
400 401.400390625 m 1
 670 531 l 1
 670 549 l 2
 670 574.200195312 650.200195312 594 625 594 c 2
 175 594 l 2
 149.799804688 594 130 574.200195312 130 549 c 2
 130 531 l 1
 400 401.400390625 l 1
EndSplineSet
EndChar

StartChar: T
Encoding: 84 84 70
Width: 800
VWidth: 0
Flags: HW
LayerCount: 2
Fore
SplineSet
394.141601562 332.87890625 m 5
 411.368164062 350.103515625 422.059570312 373.86328125 422.059570312 400 c 4
 422.059570312 426.13671875 411.368164062 449.896484375 394.141601562 467.12109375 c 5
 410.41796875 480.544921875 l 5
 431.087890625 459.875976562 443.919921875 431.361328125 443.919921875 400 c 4
 443.919921875 368.638671875 431.087890625 340.124023438 410.41796875 319.455078125 c 5
 394.141601562 332.87890625 l 5
483.635742188 253.551757812 m 5
 521.219726562 291.13671875 544.546875 342.9765625 544.546875 400 c 4
 544.546875 457.0234375 521.219726562 508.86328125 483.635742188 546.448242188 c 5
 519.145507812 575.73828125 l 5
 564.245117188 530.635742188 592.240234375 468.427734375 592.240234375 400 c 4
 592.240234375 331.572265625 564.245117188 269.364257812 519.145507812 224.26171875 c 5
 483.635742188 253.551757812 l 5
432.889648438 298.299804688 m 5
 458.990234375 324.400390625 475.189453125 360.400390625 475.189453125 400 c 4
 475.189453125 439.599609375 458.990234375 475.599609375 432.889648438 501.700195312 c 5
 457.549804688 522.040039062 l 5
 488.869140625 490.719726562 508.309570312 447.51953125 508.309570312 400 c 4
 508.309570312 352.48046875 488.869140625 309.280273438 457.549804688 277.959960938 c 5
 432.889648438 298.299804688 l 5
207.759765625 400 m 5
 207.759765625 360.219726562 l 5
 267.700195312 360.219726562 l 5
 339.700195312 298.299804688 l 5
 365.799804688 324.400390625 382 360.400390625 382 400 c 4
 382 439.599609375 365.799804688 475.599609375 339.700195312 501.700195312 c 5
 267.700195312 439.780273438 l 5
 207.759765625 439.780273438 l 5
 207.759765625 400 l 5
EndSplineSet
EndChar

StartChar: U
Encoding: 85 85 71
Width: 800
VWidth: 0
Flags: HW
LayerCount: 2
Fore
SplineSet
341.094726562 423.28515625 m 0
 341.094726562 390.297851562 367.013671875 364.379882812 400 364.379882812 c 0
 432.986328125 364.379882812 458.905273438 390.297851562 458.905273438 423.28515625 c 0
 458.905273438 456.271484375 458.905273438 508.108398438 458.905273438 541.094726562 c 0
 458.905273438 574.08203125 432.986328125 600 400 600 c 0
 367.013671875 600 341.094726562 574.08203125 341.094726562 541.094726562 c 0
 341.094726562 508.108398438 341.094726562 456.271484375 341.094726562 423.28515625 c 0
515.453125 495 m 1
 515.453125 430.346679688 515.453125 463.19921875 515.453125 398.544921875 c 0
 515.453125 344.102539062 479.43359375 299.483398438 429.452148438 286.74609375 c 1
 429.452148438 204.158203125 l 1
 370.547851562 204.158203125 l 1
 370.547851562 286.74609375 l 1
 320.56640625 299.483398438 284.546875 344.102539062 284.546875 398.544921875 c 0
 284.546875 463.19921875 284.546875 430.346679688 284.546875 495 c 1
 317.533203125 495 l 1
 317.533203125 448.819335938 317.533203125 461.219726562 317.533203125 415.037109375 c 0
 317.533203125 368.856445312 353.818359375 332.5703125 400 332.5703125 c 0
 446.181640625 332.5703125 482.466796875 368.856445312 482.466796875 415.037109375 c 0
 482.466796875 461.219726562 482.466796875 448.819335938 482.466796875 495 c 1
 515.453125 495 l 1
EndSplineSet
EndChar

StartChar: V
Encoding: 86 86 72
Width: 800
VWidth: 0
Flags: HW
LayerCount: 2
Fore
SplineSet
413.646484375 415.124023438 m 5
 405.978515625 495.069335938 338.201171875 558.045898438 256.322265625 558.045898438 c 4
 169.33984375 558.045898438 98.2734375 486.979492188 98.2734375 400 c 5
 98.2734375 384.875976562 l 5
 386.353515625 384.875976562 l 5
 394.021484375 304.930664062 461.798828125 241.954101562 543.677734375 241.954101562 c 4
 630.659179688 241.954101562 701.7265625 313.01953125 701.7265625 400 c 5
 701.7265625 415.124023438 l 5
 413.646484375 415.124023438 l 5
127.897460938 415.124023438 m 5
 135.458007812 479.146484375 190.369140625 529.3125 256.322265625 529.3125 c 4
 322.2734375 529.3125 377.184570312 479.145507812 384.744140625 415.124023438 c 5
 127.897460938 415.124023438 l 5
672.990234375 384.875976562 m 5
 665.4296875 320.854492188 609.631835938 270.6875 543.677734375 270.6875 c 4
 477.7265625 270.6875 422.815429688 320.853515625 415.255859375 384.875976562 c 5
 672.990234375 384.875976562 l 5
EndSplineSet
EndChar

StartChar: W
Encoding: 87 87 73
Width: 800
VWidth: 0
Flags: HW
LayerCount: 2
Fore
SplineSet
139.569335938 129.23046875 m 5
 122.54296875 135.225585938 l 5
 212.79296875 391.536132812 l 5
 229.326171875 438.490234375 l 5
 246.729492188 391.8515625 l 5
 276.102539062 313.1328125 l 5
 393.728515625 587.590820312 l 5
 409.618164062 624.666015625 l 5
 426.674804688 588.114257812 l 5
 472.755859375 489.37109375 l 5
 514.65234375 587.564453125 l 5
 530.078125 623.71875 l 5
 547.446289062 588.45703125 l 5
 587.486328125 507.1640625 l 5
 643.166015625 676.372070312 l 5
 660.311523438 670.73046875 l 5
 677.45703125 665.08984375 l 5
 607.96484375 453.903320312 l 5
 594.151367188 411.928710938 l 5
 574.626953125 451.5703125 l 5
 532.4296875 537.243164062 l 5
 490.095703125 438.022460938 l 5
 474.231445312 400.840820312 l 5
 457.137695312 437.47265625 l 5
 411.01953125 536.295898438 l 5
 291.534179688 257.498046875 l 5
 273.784179688 216.083007812 l 5
 258.032226562 258.296875 l 5
 230.310546875 332.590820312 l 5
 156.59375 123.236328125 l 5
 139.569335938 129.23046875 l 5
EndSplineSet
EndChar

StartChar: X
Encoding: 88 88 74
Width: 800
VWidth: 0
Flags: HW
LayerCount: 2
Fore
SplineSet
400 290 m 0
 403 290 403 291 404 291.962890625 c 1
 475.87890625 383.841796875 l 1
 475.87890625 383.841796875 480 392 478 396 c 24
 476 400 473 400 468 400 c 1
 426.400390625 400 l 1
 426.400390625 690 l 9
 426 693 426 695 424.599609375 697 c 24
 424 699 420.400390625 700 420.400390625 700 c 1
 400 700 l 1
 379.599609375 700 l 1
 379.599609375 700 376 699 375.400390625 697 c 24
 374 695 374 693 373.599609375 690 c 17
 373.599609375 400 l 1
 332 400 l 1
 327 400 324 400 322 396 c 24
 320 392 324.12109375 383.841796875 324.12109375 383.841796875 c 1
 396 291.962890625 l 1
 397 291 398 290 400 290 c 0
660 400 m 1
 700 400 l 1
 700 140 l 1
 700 100 l 1
 660 100 l 1
 140 100 l 1
 100 100 l 1
 100 140 l 1
 100 400 l 1
 140 400 l 1
 180 400 l 1
 180 180 l 1
 620 180 l 1
 620 400 l 1
 660 400 l 1
EndSplineSet
EndChar

StartChar: Y
Encoding: 89 89 75
Width: 800
VWidth: 0
Flags: HW
LayerCount: 2
Fore
SplineSet
400 700 m 0
 397 700 397 699 396 698.037109375 c 1
 324.12109375 606.158203125 l 1
 324.12109375 606.158203125 320 598 322 594 c 24
 324 590 327 590 332 590 c 1
 373.599609375 590 l 1
 373.599609375 300 l 9
 374 297 374 295 375.400390625 293 c 24
 376 291 379.599609375 290 379.599609375 290 c 1
 400 290 l 1
 420.400390625 290 l 1
 420.400390625 290 424 291 424.599609375 293 c 24
 426 295 426 297 426.400390625 300 c 17
 426.400390625 590 l 1
 468 590 l 1
 473 590 476 590 478 594 c 24
 480 598 475.87890625 606.158203125 475.87890625 606.158203125 c 1
 404 698.037109375 l 1
 403 699 402 700 400 700 c 0
660 400 m 1
 700 400 l 1
 700 140 l 1
 700 100 l 1
 660 100 l 1
 140 100 l 1
 100 100 l 1
 100 140 l 1
 100 400 l 1
 140 400 l 1
 180 400 l 1
 180 180 l 1
 620 180 l 1
 620 400 l 1
 660 400 l 1
EndSplineSet
EndChar

StartChar: Z
Encoding: 90 90 76
Width: 800
VWidth: 0
Flags: HW
LayerCount: 2
Fore
SplineSet
490 442 m 1
 513 442 l 1
 513 436 l 1
 490 436 l 1
 490 442 l 1
490 455 m 1
 525 455 l 1
 525 449 l 1
 490 449 l 1
 490 455 l 1
482 422.119140625 m 1
 540 422.119140625 l 1
 540 461 l 1
 482 461 l 1
 482 422.119140625 l 1
240 481 m 1
 240 556.200195312 l 1
 560 556.200195312 l 1
 560 481 l 1
 240 481 l 1
384 263.799804688 m 1
 416 263.799804688 l 1
 416 458.200195312 l 1
 384 458.200195312 l 1
 384 263.799804688 l 1
240 481 m 1
 160 559.400390625 l 1
 179.200195312 559.400390625 l 25
 257.599609375 481 l 25
 240 481 l 1
560 481 m 1
 542.400390625 481 l 25
 620.799804688 559.400390625 l 25
 640 559.400390625 l 1
 560 481 l 1
240 241 m 1
 240 481 l 1
 560 481 l 1
 560 241 l 1
 240 241 l 1
EndSplineSet
EndChar

StartChar: a
Encoding: 97 97 83
Width: 800
VWidth: 0
Flags: HW
LayerCount: 2
Fore
SplineSet
612.131835938 612.131835938 m 0
 610.834960938 613.428710938 608.897460938 614.005859375 606.899414062 613.970703125 c 0
 606.384765625 613.9609375 605.865234375 613.9140625 605.34375 613.829101562 c 2
 542.411132812 608.879882812 l 2
 540.624023438 608.76171875 538.77734375 608.092773438 537.180664062 606.991210938 c 0
 535.583007812 605.888671875 534.243164062 604.357421875 533.360351562 602.657226562 c 0
 532.444335938 600.89453125 532.016601562 598.9609375 532.087890625 597.141601562 c 0
 532.163085938 595.181640625 532.811523438 593.350585938 533.926757812 591.909179688 c 2
 562.91796875 562.91796875 l 1
 591.909179688 533.926757812 l 2
 593.350585938 532.811523438 595.181640625 532.163085938 597.141601562 532.087890625 c 0
 598.9609375 532.016601562 600.89453125 532.444335938 602.657226562 533.360351562 c 0
 604.357421875 534.243164062 605.888671875 535.583007812 606.991210938 537.180664062 c 0
 608.092773438 538.77734375 608.76171875 540.624023438 608.879882812 542.411132812 c 2
 613.829101562 605.34375 l 2
 613.9140625 605.865234375 613.9609375 606.384765625 613.970703125 606.899414062 c 0
 614.005859375 608.897460938 613.428710938 610.834960938 612.131835938 612.131835938 c 0
  Spiro
    612.132 612.132 o
    606.899 613.971 o
    605.344 613.829 v
    542.411 608.879 v
    533.36 602.657 o
    532.088 597.141 o
    533.926 591.909 v
    562.917 562.917 o
    591.909 533.926 v
    597.141 532.088 o
    602.657 533.36 o
    608.879 542.411 v
    613.829 605.344 v
    613.971 606.899 o
    0 0 z
  EndSpiro
187.868164062 187.868164062 m 0
 186.571289062 189.165039062 185.994140625 191.102539062 186.029296875 193.100585938 c 0
 186.0390625 193.615234375 186.0859375 194.134765625 186.170898438 194.65625 c 2
 191.120117188 257.588867188 l 2
 191.23828125 259.375976562 191.907226562 261.22265625 193.008789062 262.819335938 c 0
 194.111328125 264.416992188 195.642578125 265.756835938 197.342773438 266.639648438 c 0
 199.10546875 267.555664062 201.0390625 267.983398438 202.858398438 267.912109375 c 0
 204.818359375 267.836914062 206.649414062 267.188476562 208.090820312 266.073242188 c 2
 237.08203125 237.08203125 l 1
 266.073242188 208.090820312 l 2
 267.188476562 206.649414062 267.836914062 204.818359375 267.912109375 202.858398438 c 0
 267.983398438 201.0390625 267.555664062 199.10546875 266.639648438 197.342773438 c 0
 265.756835938 195.642578125 264.416992188 194.111328125 262.819335938 193.008789062 c 0
 261.22265625 191.907226562 259.375976562 191.23828125 257.588867188 191.120117188 c 2
 194.65625 186.170898438 l 2
 194.134765625 186.0859375 193.615234375 186.0390625 193.100585938 186.029296875 c 0
 191.102539062 185.994140625 189.165039062 186.571289062 187.868164062 187.868164062 c 0
  Spiro
    187.868 187.868 o
    186.029 193.101 o
    186.171 194.656 v
    191.121 257.589 v
    197.343 266.64 o
    202.859 267.912 o
    208.091 266.074 v
    237.083 237.083 o
    266.074 208.091 v
    267.912 202.859 o
    266.64 197.343 o
    257.589 191.121 v
    194.656 186.171 v
    193.101 186.029 o
    0 0 z
  EndSpiro
700 400 m 0
 700 401.833984375 699.038085938 403.612304688 697.600585938 405 c 0
 697.229492188 405.357421875 696.829101562 405.69140625 696.400390625 406 c 2
 648.400390625 447 l 2
 647.052734375 448.180664062 645.274414062 449.013671875 643.366210938 449.36328125 c 0
 641.45703125 449.713867188 639.426757812 449.578125 637.600585938 449 c 0
 635.706054688 448.401367188 634.036132812 447.336914062 632.799804688 446 c 0
 631.467773438 444.560546875 630.631835938 442.807617188 630.400390625 441 c 2
 630.400390625 400 l 1
 630.400390625 359 l 2
 630.631835938 357.192382812 631.467773438 355.439453125 632.799804688 354 c 0
 634.036132812 352.663085938 635.706054688 351.598632812 637.600585938 351 c 0
 639.426757812 350.421875 641.45703125 350.286132812 643.366210938 350.63671875 c 0
 645.274414062 350.986328125 647.052734375 351.819335938 648.400390625 353 c 2
 696.400390625 394 l 2
 696.829101562 394.30859375 697.229492188 394.642578125 697.600585938 395 c 0
 699.038085938 396.387695312 700 398.166015625 700 400 c 0
  Spiro
    700 400 o
    697.6 405 o
    696.4 406 v
    648.4 447 v
    637.6 449 o
    632.8 446 o
    630.4 441 v
    630.4 400 o
    630.4 359 v
    632.8 354 o
    637.6 351 o
    648.4 353 v
    696.4 394 v
    697.6 395 o
    0 0 z
  EndSpiro
100 400 m 0
 100 401.833984375 100.961914062 403.612304688 102.399414062 405 c 0
 102.770507812 405.357421875 103.170898438 405.69140625 103.599609375 406 c 2
 151.599609375 447 l 2
 152.947265625 448.180664062 154.725585938 449.013671875 156.633789062 449.36328125 c 0
 158.54296875 449.713867188 160.573242188 449.578125 162.399414062 449 c 0
 164.293945312 448.401367188 165.963867188 447.336914062 167.200195312 446 c 0
 168.532226562 444.560546875 169.368164062 442.807617188 169.599609375 441 c 2
 169.599609375 400 l 1
 169.599609375 359 l 2
 169.368164062 357.192382812 168.532226562 355.439453125 167.200195312 354 c 0
 165.963867188 352.663085938 164.293945312 351.598632812 162.399414062 351 c 0
 160.573242188 350.421875 158.54296875 350.286132812 156.633789062 350.63671875 c 0
 154.725585938 350.986328125 152.947265625 351.819335938 151.599609375 353 c 2
 103.599609375 394 l 2
 103.170898438 394.30859375 102.770507812 394.642578125 102.399414062 395 c 0
 100.961914062 396.387695312 100 398.166015625 100 400 c 0
  Spiro
    100 400 o
    102.4 405 o
    103.6 406 v
    151.6 447 v
    162.4 449 o
    167.2 446 o
    169.6 441 v
    169.6 400 o
    169.6 359 v
    167.2 354 o
    162.4 351 o
    151.6 353 v
    103.6 394 v
    102.4 395 o
    0 0 z
  EndSpiro
612.131835938 187.868164062 m 0
 613.428710938 189.165039062 614.005859375 191.102539062 613.970703125 193.100585938 c 0
 613.9609375 193.615234375 613.9140625 194.134765625 613.829101562 194.65625 c 2
 608.879882812 257.588867188 l 2
 608.76171875 259.375976562 608.092773438 261.22265625 606.991210938 262.819335938 c 0
 605.888671875 264.416992188 604.357421875 265.756835938 602.657226562 266.639648438 c 0
 600.89453125 267.555664062 598.9609375 267.983398438 597.141601562 267.912109375 c 0
 595.181640625 267.836914062 593.350585938 267.188476562 591.909179688 266.073242188 c 2
 562.91796875 237.08203125 l 1
 533.926757812 208.090820312 l 2
 532.811523438 206.649414062 532.163085938 204.818359375 532.087890625 202.858398438 c 0
 532.016601562 201.0390625 532.444335938 199.10546875 533.360351562 197.342773438 c 0
 534.243164062 195.642578125 535.583007812 194.111328125 537.180664062 193.008789062 c 0
 538.77734375 191.907226562 540.624023438 191.23828125 542.411132812 191.120117188 c 2
 605.34375 186.170898438 l 2
 605.865234375 186.0859375 606.384765625 186.0390625 606.899414062 186.029296875 c 0
 608.897460938 185.994140625 610.834960938 186.571289062 612.131835938 187.868164062 c 0
  Spiro
    612.132 187.868 o
    613.971 193.101 o
    613.829 194.656 v
    608.879 257.589 v
    602.657 266.64 o
    597.141 267.912 o
    591.909 266.074 v
    562.917 237.083 o
    533.926 208.091 v
    532.088 202.859 o
    533.36 197.343 o
    542.411 191.121 v
    605.344 186.171 v
    606.899 186.029 o
    0 0 z
  EndSpiro
187.868164062 612.131835938 m 0
 189.165039062 613.428710938 191.102539062 614.005859375 193.100585938 613.970703125 c 0
 193.615234375 613.9609375 194.134765625 613.9140625 194.65625 613.829101562 c 2
 257.588867188 608.879882812 l 2
 259.375976562 608.76171875 261.22265625 608.092773438 262.819335938 606.991210938 c 0
 264.416992188 605.888671875 265.756835938 604.357421875 266.639648438 602.657226562 c 0
 267.555664062 600.89453125 267.983398438 598.9609375 267.912109375 597.141601562 c 0
 267.836914062 595.181640625 267.188476562 593.350585938 266.073242188 591.909179688 c 2
 237.08203125 562.91796875 l 1
 208.090820312 533.926757812 l 2
 206.649414062 532.811523438 204.818359375 532.163085938 202.858398438 532.087890625 c 0
 201.0390625 532.016601562 199.10546875 532.444335938 197.342773438 533.360351562 c 0
 195.642578125 534.243164062 194.111328125 535.583007812 193.008789062 537.180664062 c 0
 191.907226562 538.77734375 191.23828125 540.624023438 191.120117188 542.411132812 c 2
 186.170898438 605.34375 l 2
 186.0859375 605.865234375 186.0390625 606.384765625 186.029296875 606.899414062 c 0
 185.994140625 608.897460938 186.571289062 610.834960938 187.868164062 612.131835938 c 0
  Spiro
    187.868 612.132 o
    193.101 613.971 o
    194.656 613.829 v
    257.589 608.879 v
    266.64 602.657 o
    267.912 597.141 o
    266.074 591.909 v
    237.083 562.917 o
    208.091 533.926 v
    202.859 532.088 o
    197.343 533.36 o
    191.121 542.411 v
    186.171 605.344 v
    186.029 606.899 o
    0 0 z
  EndSpiro
400 100 m 0
 401.833984375 100 403.612304688 100.961914062 405 102.399414062 c 0
 405.357421875 102.770507812 405.69140625 103.170898438 406 103.599609375 c 2
 447 151.599609375 l 2
 448.180664062 152.947265625 449.013671875 154.725585938 449.36328125 156.633789062 c 0
 449.713867188 158.54296875 449.578125 160.573242188 449 162.399414062 c 0
 448.401367188 164.293945312 447.336914062 165.963867188 446 167.200195312 c 0
 444.560546875 168.532226562 442.807617188 169.368164062 441 169.599609375 c 2
 400 169.599609375 l 1
 359 169.599609375 l 2
 357.192382812 169.368164062 355.439453125 168.532226562 354 167.200195312 c 0
 352.663085938 165.963867188 351.598632812 164.293945312 351 162.399414062 c 0
 350.421875 160.573242188 350.286132812 158.54296875 350.63671875 156.633789062 c 0
 350.986328125 154.725585938 351.819335938 152.947265625 353 151.599609375 c 2
 394 103.599609375 l 2
 394.30859375 103.170898438 394.642578125 102.770507812 395 102.399414062 c 0
 396.387695312 100.961914062 398.166015625 100 400 100 c 0
  Spiro
    400 100 o
    405 102.4 o
    406 103.6 v
    447 151.6 v
    449 162.4 o
    446 167.2 o
    441 169.6 v
    400 169.6 o
    359 169.6 v
    354 167.2 o
    351 162.4 o
    353 151.6 v
    394 103.6 v
    395 102.4 o
    0 0 z
  EndSpiro
400 700 m 0
 401.833984375 700 403.612304688 699.038085938 405 697.600585938 c 0
 405.357421875 697.229492188 405.69140625 696.829101562 406 696.400390625 c 2
 447 648.400390625 l 2
 448.180664062 647.052734375 449.013671875 645.274414062 449.36328125 643.366210938 c 0
 449.713867188 641.45703125 449.578125 639.426757812 449 637.600585938 c 0
 448.401367188 635.706054688 447.336914062 634.036132812 446 632.799804688 c 0
 444.560546875 631.467773438 442.807617188 630.631835938 441 630.400390625 c 2
 400 630.400390625 l 1
 359 630.400390625 l 2
 357.192382812 630.631835938 355.439453125 631.467773438 354 632.799804688 c 0
 352.663085938 634.036132812 351.598632812 635.706054688 351 637.600585938 c 0
 350.421875 639.426757812 350.286132812 641.45703125 350.63671875 643.366210938 c 0
 350.986328125 645.274414062 351.819335938 647.052734375 353 648.400390625 c 2
 394 696.400390625 l 2
 394.30859375 696.829101562 394.642578125 697.229492188 395 697.600585938 c 0
 396.387695312 699.038085938 398.166015625 700 400 700 c 0
  Spiro
    400 700 o
    405 697.6 o
    406 696.4 v
    447 648.4 v
    449 637.6 o
    446 632.8 o
    441 630.4 v
    400 630.4 o
    359 630.4 v
    354 632.8 o
    351 637.6 o
    353 648.4 v
    394 696.4 v
    395 697.6 o
    0 0 z
  EndSpiro
250 400 m 0
 250 317.5 317.5 250 400 250 c 0
 482.5 250 550 317.5 550 400 c 0
 550 482.5 482.5 550 400 550 c 0
 317.5 550 250 482.5 250 400 c 0
  Spiro
    250 400 o
    270.516 324.511 o
    324.511 270.516 o
    400 250 o
    475.489 270.516 o
    529.484 324.511 o
    550 400 o
    529.484 475.489 o
    475.489 529.484 o
    400 550 o
    324.511 529.484 o
    270.516 475.489 o
    0 0 z
  EndSpiro
200 400 m 0
 200 510 290 600 400 600 c 0
 510 600 600 510 600 400 c 0
 600 290 510 200 400 200 c 0
 290 200 200 290 200 400 c 0
  Spiro
    200 400 o
    227.355 500.652 o
    299.348 572.645 o
    400 600 o
    500.652 572.645 o
    572.645 500.652 o
    600 400 o
    572.645 299.348 o
    500.652 227.355 o
    400 200 o
    299.348 227.355 o
    227.355 299.348 o
    0 0 z
  EndSpiro
EndSplineSet
EndChar

StartChar: b
Encoding: 98 98 84
Width: 800
VWidth: 0
InSpiro: 1
Flags: HW
LayerCount: 2
Fore
SplineSet
400 550 m 5
 400 250 l 5
 482.5 250 550 317.5 550 400 c 4
 550 482.5 482.5 550 400 550 c 5
612.131835938 612.131835938 m 0
 613.428710938 610.834960938 614.005859375 608.897460938 613.970703125 606.899414062 c 0
 613.9609375 606.384765625 613.9140625 605.865234375 613.829101562 605.34375 c 2
 608.879882812 542.411132812 l 2
 608.76171875 540.624023438 608.092773438 538.77734375 606.991210938 537.180664062 c 0
 605.888671875 535.583007812 604.357421875 534.243164062 602.657226562 533.360351562 c 0
 600.89453125 532.444335938 598.9609375 532.016601562 597.141601562 532.087890625 c 0
 595.181640625 532.163085938 593.350585938 532.811523438 591.909179688 533.926757812 c 2
 562.91796875 562.91796875 l 1
 533.926757812 591.909179688 l 2
 532.811523438 593.350585938 532.163085938 595.181640625 532.087890625 597.141601562 c 0
 532.016601562 598.9609375 532.444335938 600.89453125 533.360351562 602.657226562 c 0
 534.243164062 604.357421875 535.583007812 605.888671875 537.180664062 606.991210938 c 0
 538.77734375 608.092773438 540.624023438 608.76171875 542.411132812 608.879882812 c 2
 605.34375 613.829101562 l 2
 605.865234375 613.9140625 606.384765625 613.9609375 606.899414062 613.970703125 c 0
 608.897460938 614.005859375 610.834960938 613.428710938 612.131835938 612.131835938 c 0
  Spiro
    613.971 606.899 o
    613.829 605.344 v
    608.879 542.411 v
    602.657 533.36 o
    597.141 532.088 o
    591.909 533.926 v
    562.917 562.917 o
    533.926 591.909 v
    532.088 597.141 o
    533.36 602.657 o
    542.411 608.879 v
    605.344 613.829 v
    606.899 613.971 o
    612.132 612.132 o
    0 0 z
  EndSpiro
187.868164062 187.868164062 m 0
 186.571289062 189.165039062 185.994140625 191.102539062 186.029296875 193.100585938 c 0
 186.0390625 193.615234375 186.0859375 194.134765625 186.170898438 194.65625 c 2
 191.120117188 257.588867188 l 2
 191.23828125 259.375976562 191.907226562 261.22265625 193.008789062 262.819335938 c 0
 194.111328125 264.416992188 195.642578125 265.756835938 197.342773438 266.639648438 c 0
 199.10546875 267.555664062 201.0390625 267.983398438 202.858398438 267.912109375 c 0
 204.818359375 267.836914062 206.649414062 267.188476562 208.090820312 266.073242188 c 2
 237.08203125 237.08203125 l 1
 266.073242188 208.090820312 l 2
 267.188476562 206.649414062 267.836914062 204.818359375 267.912109375 202.858398438 c 0
 267.983398438 201.0390625 267.555664062 199.10546875 266.639648438 197.342773438 c 0
 265.756835938 195.642578125 264.416992188 194.111328125 262.819335938 193.008789062 c 0
 261.22265625 191.907226562 259.375976562 191.23828125 257.588867188 191.120117188 c 2
 194.65625 186.170898438 l 2
 194.134765625 186.0859375 193.615234375 186.0390625 193.100585938 186.029296875 c 0
 191.102539062 185.994140625 189.165039062 186.571289062 187.868164062 187.868164062 c 0
  Spiro
    187.868 187.868 o
    186.029 193.101 o
    186.171 194.656 v
    191.121 257.589 v
    197.343 266.64 o
    202.859 267.912 o
    208.091 266.074 v
    237.083 237.083 o
    266.074 208.091 v
    267.912 202.859 o
    266.64 197.343 o
    257.589 191.121 v
    194.656 186.171 v
    193.101 186.029 o
    0 0 z
  EndSpiro
700 400 m 0
 700 398.166015625 699.038085938 396.387695312 697.600585938 395 c 0
 697.229492188 394.642578125 696.829101562 394.30859375 696.400390625 394 c 2
 648.400390625 353 l 2
 647.052734375 351.819335938 645.274414062 350.986328125 643.366210938 350.63671875 c 0
 641.45703125 350.286132812 639.426757812 350.421875 637.600585938 351 c 0
 635.706054688 351.598632812 634.036132812 352.663085938 632.799804688 354 c 0
 631.467773438 355.439453125 630.631835938 357.192382812 630.400390625 359 c 2
 630.400390625 400 l 1
 630.400390625 441 l 2
 630.631835938 442.807617188 631.467773438 444.560546875 632.799804688 446 c 0
 634.036132812 447.336914062 635.706054688 448.401367188 637.600585938 449 c 0
 639.426757812 449.578125 641.45703125 449.713867188 643.366210938 449.36328125 c 0
 645.274414062 449.013671875 647.052734375 448.180664062 648.400390625 447 c 2
 696.400390625 406 l 2
 696.829101562 405.69140625 697.229492188 405.357421875 697.600585938 405 c 0
 699.038085938 403.612304688 700 401.833984375 700 400 c 0
  Spiro
    697.6 395 o
    696.4 394 v
    648.4 353 v
    637.6 351 o
    632.8 354 o
    630.4 359 v
    630.4 400 o
    630.4 441 v
    632.8 446 o
    637.6 449 o
    648.4 447 v
    696.4 406 v
    697.6 405 o
    700 400 o
    0 0 z
  EndSpiro
100 400 m 0
 100 401.833984375 100.961914062 403.612304688 102.399414062 405 c 0
 102.770507812 405.357421875 103.170898438 405.69140625 103.599609375 406 c 2
 151.599609375 447 l 2
 152.947265625 448.180664062 154.725585938 449.013671875 156.633789062 449.36328125 c 0
 158.54296875 449.713867188 160.573242188 449.578125 162.399414062 449 c 0
 164.293945312 448.401367188 165.963867188 447.336914062 167.200195312 446 c 0
 168.532226562 444.560546875 169.368164062 442.807617188 169.599609375 441 c 2
 169.599609375 400 l 1
 169.599609375 359 l 2
 169.368164062 357.192382812 168.532226562 355.439453125 167.200195312 354 c 0
 165.963867188 352.663085938 164.293945312 351.598632812 162.399414062 351 c 0
 160.573242188 350.421875 158.54296875 350.286132812 156.633789062 350.63671875 c 0
 154.725585938 350.986328125 152.947265625 351.819335938 151.599609375 353 c 2
 103.599609375 394 l 2
 103.170898438 394.30859375 102.770507812 394.642578125 102.399414062 395 c 0
 100.961914062 396.387695312 100 398.166015625 100 400 c 0
  Spiro
    100 400 o
    102.4 405 o
    103.6 406 v
    151.6 447 v
    162.4 449 o
    167.2 446 o
    169.6 441 v
    169.6 400 o
    169.6 359 v
    167.2 354 o
    162.4 351 o
    151.6 353 v
    103.6 394 v
    102.4 395 o
    0 0 z
  EndSpiro
612.131835938 187.868164062 m 0
 610.834960938 186.571289062 608.897460938 185.994140625 606.899414062 186.029296875 c 0
 606.384765625 186.0390625 605.865234375 186.0859375 605.34375 186.170898438 c 2
 542.411132812 191.120117188 l 2
 540.624023438 191.23828125 538.77734375 191.907226562 537.180664062 193.008789062 c 0
 535.583007812 194.111328125 534.243164062 195.642578125 533.360351562 197.342773438 c 0
 532.444335938 199.10546875 532.016601562 201.0390625 532.087890625 202.858398438 c 0
 532.163085938 204.818359375 532.811523438 206.649414062 533.926757812 208.090820312 c 2
 562.91796875 237.08203125 l 1
 591.909179688 266.073242188 l 2
 593.350585938 267.188476562 595.181640625 267.836914062 597.141601562 267.912109375 c 0
 598.9609375 267.983398438 600.89453125 267.555664062 602.657226562 266.639648438 c 0
 604.357421875 265.756835938 605.888671875 264.416992188 606.991210938 262.819335938 c 0
 608.092773438 261.22265625 608.76171875 259.375976562 608.879882812 257.588867188 c 2
 613.829101562 194.65625 l 2
 613.9140625 194.134765625 613.9609375 193.615234375 613.970703125 193.100585938 c 0
 614.005859375 191.102539062 613.428710938 189.165039062 612.131835938 187.868164062 c 0
  Spiro
    606.899 186.029 o
    605.344 186.171 v
    542.411 191.121 v
    533.36 197.343 o
    532.088 202.859 o
    533.926 208.091 v
    562.917 237.083 o
    591.909 266.074 v
    597.141 267.912 o
    602.657 266.64 o
    608.879 257.589 v
    613.829 194.656 v
    613.971 193.101 o
    612.132 187.868 o
    0 0 z
  EndSpiro
187.868164062 612.131835938 m 0
 189.165039062 613.428710938 191.102539062 614.005859375 193.100585938 613.970703125 c 0
 193.615234375 613.9609375 194.134765625 613.9140625 194.65625 613.829101562 c 2
 257.588867188 608.879882812 l 2
 259.375976562 608.76171875 261.22265625 608.092773438 262.819335938 606.991210938 c 0
 264.416992188 605.888671875 265.756835938 604.357421875 266.639648438 602.657226562 c 0
 267.555664062 600.89453125 267.983398438 598.9609375 267.912109375 597.141601562 c 0
 267.836914062 595.181640625 267.188476562 593.350585938 266.073242188 591.909179688 c 2
 237.08203125 562.91796875 l 1
 208.090820312 533.926757812 l 2
 206.649414062 532.811523438 204.818359375 532.163085938 202.858398438 532.087890625 c 0
 201.0390625 532.016601562 199.10546875 532.444335938 197.342773438 533.360351562 c 0
 195.642578125 534.243164062 194.111328125 535.583007812 193.008789062 537.180664062 c 0
 191.907226562 538.77734375 191.23828125 540.624023438 191.120117188 542.411132812 c 2
 186.170898438 605.34375 l 2
 186.0859375 605.865234375 186.0390625 606.384765625 186.029296875 606.899414062 c 0
 185.994140625 608.897460938 186.571289062 610.834960938 187.868164062 612.131835938 c 0
  Spiro
    187.868 612.132 o
    193.101 613.971 o
    194.656 613.829 v
    257.589 608.879 v
    266.64 602.657 o
    267.912 597.141 o
    266.074 591.909 v
    237.083 562.917 o
    208.091 533.926 v
    202.859 532.088 o
    197.343 533.36 o
    191.121 542.411 v
    186.171 605.344 v
    186.029 606.899 o
    0 0 z
  EndSpiro
400 100 m 0
 398.166015625 100 396.387695312 100.961914062 395 102.399414062 c 0
 394.642578125 102.770507812 394.30859375 103.170898438 394 103.599609375 c 2
 353 151.599609375 l 2
 351.819335938 152.947265625 350.986328125 154.725585938 350.63671875 156.633789062 c 0
 350.286132812 158.54296875 350.421875 160.573242188 351 162.399414062 c 0
 351.598632812 164.293945312 352.663085938 165.963867188 354 167.200195312 c 0
 355.439453125 168.532226562 357.192382812 169.368164062 359 169.599609375 c 2
 400 169.599609375 l 1
 441 169.599609375 l 2
 442.807617188 169.368164062 444.560546875 168.532226562 446 167.200195312 c 0
 447.336914062 165.963867188 448.401367188 164.293945312 449 162.399414062 c 0
 449.578125 160.573242188 449.713867188 158.54296875 449.36328125 156.633789062 c 0
 449.013671875 154.725585938 448.180664062 152.947265625 447 151.599609375 c 2
 406 103.599609375 l 2
 405.69140625 103.170898438 405.357421875 102.770507812 405 102.399414062 c 0
 403.612304688 100.961914062 401.833984375 100 400 100 c 0
  Spiro
    395 102.4 o
    394 103.6 v
    353 151.6 v
    351 162.4 o
    354 167.2 o
    359 169.6 v
    400 169.6 o
    441 169.6 v
    446 167.2 o
    449 162.4 o
    447 151.6 v
    406 103.6 v
    405 102.4 o
    400 100 o
    0 0 z
  EndSpiro
400 700 m 0
 401.833984375 700 403.612304688 699.038085938 405 697.600585938 c 0
 405.357421875 697.229492188 405.69140625 696.829101562 406 696.400390625 c 2
 447 648.400390625 l 2
 448.180664062 647.052734375 449.013671875 645.274414062 449.36328125 643.366210938 c 0
 449.713867188 641.45703125 449.578125 639.426757812 449 637.600585938 c 0
 448.401367188 635.706054688 447.336914062 634.036132812 446 632.799804688 c 0
 444.560546875 631.467773438 442.807617188 630.631835938 441 630.400390625 c 2
 400 630.400390625 l 1
 359 630.400390625 l 2
 357.192382812 630.631835938 355.439453125 631.467773438 354 632.799804688 c 0
 352.663085938 634.036132812 351.598632812 635.706054688 351 637.600585938 c 0
 350.421875 639.426757812 350.286132812 641.45703125 350.63671875 643.366210938 c 0
 350.986328125 645.274414062 351.819335938 647.052734375 353 648.400390625 c 2
 394 696.400390625 l 2
 394.30859375 696.829101562 394.642578125 697.229492188 395 697.600585938 c 0
 396.387695312 699.038085938 398.166015625 700 400 700 c 0
  Spiro
    400 700 o
    405 697.6 o
    406 696.4 v
    447 648.4 v
    449 637.6 o
    446 632.8 o
    441 630.4 v
    400 630.4 o
    359 630.4 v
    354 632.8 o
    351 637.6 o
    353 648.4 v
    394 696.4 v
    395 697.6 o
    0 0 z
  EndSpiro
200 400 m 0
 200 510 290 600 400 600 c 0
 510 600 600 510 600 400 c 0
 600 290 510 200 400 200 c 0
 290 200 200 290 200 400 c 0
  Spiro
    200 400 o
    227.355 500.652 o
    299.348 572.645 o
    400 600 o
    500.652 572.645 o
    572.645 500.652 o
    600 400 o
    572.645 299.348 o
    500.652 227.355 o
    400 200 o
    299.348 227.355 o
    227.355 299.348 o
    0 0 z
  EndSpiro
EndSplineSet
EndChar

StartChar: c
Encoding: 99 99 85
Width: 800
VWidth: 0
Flags: HW
LayerCount: 2
Fore
SplineSet
612.131835938 612.131835938 m 0
 613.428710938 610.834960938 614.005859375 608.897460938 613.970703125 606.899414062 c 0
 613.9609375 606.384765625 613.9140625 605.865234375 613.829101562 605.34375 c 2
 608.879882812 542.411132812 l 2
 608.76171875 540.624023438 608.092773438 538.77734375 606.991210938 537.180664062 c 0
 605.888671875 535.583007812 604.357421875 534.243164062 602.657226562 533.360351562 c 0
 600.89453125 532.444335938 598.9609375 532.016601562 597.141601562 532.087890625 c 0
 595.181640625 532.163085938 593.350585938 532.811523438 591.909179688 533.926757812 c 2
 562.91796875 562.91796875 l 1
 533.926757812 591.909179688 l 2
 532.811523438 593.350585938 532.163085938 595.181640625 532.087890625 597.141601562 c 0
 532.016601562 598.9609375 532.444335938 600.89453125 533.360351562 602.657226562 c 0
 534.243164062 604.357421875 535.583007812 605.888671875 537.180664062 606.991210938 c 0
 538.77734375 608.092773438 540.624023438 608.76171875 542.411132812 608.879882812 c 2
 605.34375 613.829101562 l 2
 605.865234375 613.9140625 606.384765625 613.9609375 606.899414062 613.970703125 c 0
 608.897460938 614.005859375 610.834960938 613.428710938 612.131835938 612.131835938 c 0
  Spiro
    613.971 606.899 o
    613.829 605.344 v
    608.879 542.411 v
    602.657 533.36 o
    597.141 532.088 o
    591.909 533.926 v
    562.917 562.917 o
    533.926 591.909 v
    532.088 597.141 o
    533.36 602.657 o
    542.411 608.879 v
    605.344 613.829 v
    606.899 613.971 o
    612.132 612.132 o
    0 0 z
  EndSpiro
187.868164062 187.868164062 m 0
 186.571289062 189.165039062 185.994140625 191.102539062 186.029296875 193.100585938 c 0
 186.0390625 193.615234375 186.0859375 194.134765625 186.170898438 194.65625 c 2
 191.120117188 257.588867188 l 2
 191.23828125 259.375976562 191.907226562 261.22265625 193.008789062 262.819335938 c 0
 194.111328125 264.416992188 195.642578125 265.756835938 197.342773438 266.639648438 c 0
 199.10546875 267.555664062 201.0390625 267.983398438 202.858398438 267.912109375 c 0
 204.818359375 267.836914062 206.649414062 267.188476562 208.090820312 266.073242188 c 2
 237.08203125 237.08203125 l 1
 266.073242188 208.090820312 l 2
 267.188476562 206.649414062 267.836914062 204.818359375 267.912109375 202.858398438 c 0
 267.983398438 201.0390625 267.555664062 199.10546875 266.639648438 197.342773438 c 0
 265.756835938 195.642578125 264.416992188 194.111328125 262.819335938 193.008789062 c 0
 261.22265625 191.907226562 259.375976562 191.23828125 257.588867188 191.120117188 c 2
 194.65625 186.170898438 l 2
 194.134765625 186.0859375 193.615234375 186.0390625 193.100585938 186.029296875 c 0
 191.102539062 185.994140625 189.165039062 186.571289062 187.868164062 187.868164062 c 0
  Spiro
    187.868 187.868 o
    186.029 193.101 o
    186.171 194.656 v
    191.121 257.589 v
    197.343 266.64 o
    202.859 267.912 o
    208.091 266.074 v
    237.083 237.083 o
    266.074 208.091 v
    267.912 202.859 o
    266.64 197.343 o
    257.589 191.121 v
    194.656 186.171 v
    193.101 186.029 o
    0 0 z
  EndSpiro
700 400 m 0
 700 398.166015625 699.038085938 396.387695312 697.600585938 395 c 0
 697.229492188 394.642578125 696.829101562 394.30859375 696.400390625 394 c 2
 648.400390625 353 l 2
 647.052734375 351.819335938 645.274414062 350.986328125 643.366210938 350.63671875 c 0
 641.45703125 350.286132812 639.426757812 350.421875 637.600585938 351 c 0
 635.706054688 351.598632812 634.036132812 352.663085938 632.799804688 354 c 0
 631.467773438 355.439453125 630.631835938 357.192382812 630.400390625 359 c 2
 630.400390625 400 l 1
 630.400390625 441 l 2
 630.631835938 442.807617188 631.467773438 444.560546875 632.799804688 446 c 0
 634.036132812 447.336914062 635.706054688 448.401367188 637.600585938 449 c 0
 639.426757812 449.578125 641.45703125 449.713867188 643.366210938 449.36328125 c 0
 645.274414062 449.013671875 647.052734375 448.180664062 648.400390625 447 c 2
 696.400390625 406 l 2
 696.829101562 405.69140625 697.229492188 405.357421875 697.600585938 405 c 0
 699.038085938 403.612304688 700 401.833984375 700 400 c 0
  Spiro
    697.6 395 o
    696.4 394 v
    648.4 353 v
    637.6 351 o
    632.8 354 o
    630.4 359 v
    630.4 400 o
    630.4 441 v
    632.8 446 o
    637.6 449 o
    648.4 447 v
    696.4 406 v
    697.6 405 o
    700 400 o
    0 0 z
  EndSpiro
100 400 m 0
 100 401.833984375 100.961914062 403.612304688 102.399414062 405 c 0
 102.770507812 405.357421875 103.170898438 405.69140625 103.599609375 406 c 2
 151.599609375 447 l 2
 152.947265625 448.180664062 154.725585938 449.013671875 156.633789062 449.36328125 c 0
 158.54296875 449.713867188 160.573242188 449.578125 162.399414062 449 c 0
 164.293945312 448.401367188 165.963867188 447.336914062 167.200195312 446 c 0
 168.532226562 444.560546875 169.368164062 442.807617188 169.599609375 441 c 2
 169.599609375 400 l 1
 169.599609375 359 l 2
 169.368164062 357.192382812 168.532226562 355.439453125 167.200195312 354 c 0
 165.963867188 352.663085938 164.293945312 351.598632812 162.399414062 351 c 0
 160.573242188 350.421875 158.54296875 350.286132812 156.633789062 350.63671875 c 0
 154.725585938 350.986328125 152.947265625 351.819335938 151.599609375 353 c 2
 103.599609375 394 l 2
 103.170898438 394.30859375 102.770507812 394.642578125 102.399414062 395 c 0
 100.961914062 396.387695312 100 398.166015625 100 400 c 0
  Spiro
    100 400 o
    102.4 405 o
    103.6 406 v
    151.6 447 v
    162.4 449 o
    167.2 446 o
    169.6 441 v
    169.6 400 o
    169.6 359 v
    167.2 354 o
    162.4 351 o
    151.6 353 v
    103.6 394 v
    102.4 395 o
    0 0 z
  EndSpiro
612.131835938 187.868164062 m 0
 610.834960938 186.571289062 608.897460938 185.994140625 606.899414062 186.029296875 c 0
 606.384765625 186.0390625 605.865234375 186.0859375 605.34375 186.170898438 c 2
 542.411132812 191.120117188 l 2
 540.624023438 191.23828125 538.77734375 191.907226562 537.180664062 193.008789062 c 0
 535.583007812 194.111328125 534.243164062 195.642578125 533.360351562 197.342773438 c 0
 532.444335938 199.10546875 532.016601562 201.0390625 532.087890625 202.858398438 c 0
 532.163085938 204.818359375 532.811523438 206.649414062 533.926757812 208.090820312 c 2
 562.91796875 237.08203125 l 1
 591.909179688 266.073242188 l 2
 593.350585938 267.188476562 595.181640625 267.836914062 597.141601562 267.912109375 c 0
 598.9609375 267.983398438 600.89453125 267.555664062 602.657226562 266.639648438 c 0
 604.357421875 265.756835938 605.888671875 264.416992188 606.991210938 262.819335938 c 0
 608.092773438 261.22265625 608.76171875 259.375976562 608.879882812 257.588867188 c 2
 613.829101562 194.65625 l 2
 613.9140625 194.134765625 613.9609375 193.615234375 613.970703125 193.100585938 c 0
 614.005859375 191.102539062 613.428710938 189.165039062 612.131835938 187.868164062 c 0
  Spiro
    606.899 186.029 o
    605.344 186.171 v
    542.411 191.121 v
    533.36 197.343 o
    532.088 202.859 o
    533.926 208.091 v
    562.917 237.083 o
    591.909 266.074 v
    597.141 267.912 o
    602.657 266.64 o
    608.879 257.589 v
    613.829 194.656 v
    613.971 193.101 o
    612.132 187.868 o
    0 0 z
  EndSpiro
187.868164062 612.131835938 m 0
 189.165039062 613.428710938 191.102539062 614.005859375 193.100585938 613.970703125 c 0
 193.615234375 613.9609375 194.134765625 613.9140625 194.65625 613.829101562 c 2
 257.588867188 608.879882812 l 2
 259.375976562 608.76171875 261.22265625 608.092773438 262.819335938 606.991210938 c 0
 264.416992188 605.888671875 265.756835938 604.357421875 266.639648438 602.657226562 c 0
 267.555664062 600.89453125 267.983398438 598.9609375 267.912109375 597.141601562 c 0
 267.836914062 595.181640625 267.188476562 593.350585938 266.073242188 591.909179688 c 2
 237.08203125 562.91796875 l 1
 208.090820312 533.926757812 l 2
 206.649414062 532.811523438 204.818359375 532.163085938 202.858398438 532.087890625 c 0
 201.0390625 532.016601562 199.10546875 532.444335938 197.342773438 533.360351562 c 0
 195.642578125 534.243164062 194.111328125 535.583007812 193.008789062 537.180664062 c 0
 191.907226562 538.77734375 191.23828125 540.624023438 191.120117188 542.411132812 c 2
 186.170898438 605.34375 l 2
 186.0859375 605.865234375 186.0390625 606.384765625 186.029296875 606.899414062 c 0
 185.994140625 608.897460938 186.571289062 610.834960938 187.868164062 612.131835938 c 0
  Spiro
    187.868 612.132 o
    193.101 613.971 o
    194.656 613.829 v
    257.589 608.879 v
    266.64 602.657 o
    267.912 597.141 o
    266.074 591.909 v
    237.083 562.917 o
    208.091 533.926 v
    202.859 532.088 o
    197.343 533.36 o
    191.121 542.411 v
    186.171 605.344 v
    186.029 606.899 o
    0 0 z
  EndSpiro
400 100 m 0
 398.166015625 100 396.387695312 100.961914062 395 102.399414062 c 0
 394.642578125 102.770507812 394.30859375 103.170898438 394 103.599609375 c 2
 353 151.599609375 l 2
 351.819335938 152.947265625 350.986328125 154.725585938 350.63671875 156.633789062 c 0
 350.286132812 158.54296875 350.421875 160.573242188 351 162.399414062 c 0
 351.598632812 164.293945312 352.663085938 165.963867188 354 167.200195312 c 0
 355.439453125 168.532226562 357.192382812 169.368164062 359 169.599609375 c 2
 400 169.599609375 l 1
 441 169.599609375 l 2
 442.807617188 169.368164062 444.560546875 168.532226562 446 167.200195312 c 0
 447.336914062 165.963867188 448.401367188 164.293945312 449 162.399414062 c 0
 449.578125 160.573242188 449.713867188 158.54296875 449.36328125 156.633789062 c 0
 449.013671875 154.725585938 448.180664062 152.947265625 447 151.599609375 c 2
 406 103.599609375 l 2
 405.69140625 103.170898438 405.357421875 102.770507812 405 102.399414062 c 0
 403.612304688 100.961914062 401.833984375 100 400 100 c 0
  Spiro
    395 102.4 o
    394 103.6 v
    353 151.6 v
    351 162.4 o
    354 167.2 o
    359 169.6 v
    400 169.6 o
    441 169.6 v
    446 167.2 o
    449 162.4 o
    447 151.6 v
    406 103.6 v
    405 102.4 o
    400 100 o
    0 0 z
  EndSpiro
400 700 m 0
 401.833984375 700 403.612304688 699.038085938 405 697.600585938 c 0
 405.357421875 697.229492188 405.69140625 696.829101562 406 696.400390625 c 2
 447 648.400390625 l 2
 448.180664062 647.052734375 449.013671875 645.274414062 449.36328125 643.366210938 c 0
 449.713867188 641.45703125 449.578125 639.426757812 449 637.600585938 c 0
 448.401367188 635.706054688 447.336914062 634.036132812 446 632.799804688 c 0
 444.560546875 631.467773438 442.807617188 630.631835938 441 630.400390625 c 2
 400 630.400390625 l 1
 359 630.400390625 l 2
 357.192382812 630.631835938 355.439453125 631.467773438 354 632.799804688 c 0
 352.663085938 634.036132812 351.598632812 635.706054688 351 637.600585938 c 0
 350.421875 639.426757812 350.286132812 641.45703125 350.63671875 643.366210938 c 0
 350.986328125 645.274414062 351.819335938 647.052734375 353 648.400390625 c 2
 394 696.400390625 l 2
 394.30859375 696.829101562 394.642578125 697.229492188 395 697.600585938 c 0
 396.387695312 699.038085938 398.166015625 700 400 700 c 0
  Spiro
    400 700 o
    405 697.6 o
    406 696.4 v
    447 648.4 v
    449 637.6 o
    446 632.8 o
    441 630.4 v
    400 630.4 o
    359 630.4 v
    354 632.8 o
    351 637.6 o
    353 648.4 v
    394 696.4 v
    395 697.6 o
    0 0 z
  EndSpiro
200 400 m 0
 200 510 290 600 400 600 c 0
 510 600 600 510 600 400 c 0
 600 290 510 200 400 200 c 0
 290 200 200 290 200 400 c 0
  Spiro
    200 400 o
    227.355 500.652 o
    299.348 572.645 o
    400 600 o
    500.652 572.645 o
    572.645 500.652 o
    600 400 o
    572.645 299.348 o
    500.652 227.355 o
    400 200 o
    299.348 227.355 o
    227.355 299.348 o
    0 0 z
  EndSpiro
EndSplineSet
EndChar

StartChar: d
Encoding: 100 100 86
Width: 800
VWidth: 0
Flags: HW
LayerCount: 2
Fore
SplineSet
250 400 m 0
 250 317.5 317.5 250 400 250 c 0
 482.5 250 550 317.5 550 400 c 0
 550 482.5 482.5 550 400 550 c 0
 317.5 550 250 482.5 250 400 c 0
  Spiro
    250 400 o
    270.516 324.511 o
    324.511 270.516 o
    400 250 o
    475.489 270.516 o
    529.484 324.511 o
    550 400 o
    529.484 475.489 o
    475.489 529.484 o
    400 550 o
    324.511 529.484 o
    270.516 475.489 o
    0 0 z
  EndSpiro
200 400 m 0
 200 510 290 600 400 600 c 0
 510 600 600 510 600 400 c 0
 600 290 510 200 400 200 c 0
 290 200 200 290 200 400 c 0
  Spiro
    200 400 o
    227.355 500.652 o
    299.348 572.645 o
    400 600 o
    500.652 572.645 o
    572.645 500.652 o
    600 400 o
    572.645 299.348 o
    500.652 227.355 o
    400 200 o
    299.348 227.355 o
    227.355 299.348 o
    0 0 z
  EndSpiro
EndSplineSet
EndChar

StartChar: e
Encoding: 101 101 87
Width: 800
VWidth: 0
Flags: HW
LayerCount: 2
Fore
SplineSet
400 550 m 1
 400 250 l 1
 482.5 250 550 317.5 550 400 c 0
 550 482.5 482.5 550 400 550 c 1
200 400 m 0
 200 510 290 600 400 600 c 0
 510 600 600 510 600 400 c 0
 600 290 510 200 400 200 c 0
 290 200 200 290 200 400 c 0
  Spiro
    200 400 o
    227.355 500.652 o
    299.348 572.645 o
    400 600 o
    500.652 572.645 o
    572.645 500.652 o
    600 400 o
    572.645 299.348 o
    500.652 227.355 o
    400 200 o
    299.348 227.355 o
    227.355 299.348 o
    0 0 z
  EndSpiro
EndSplineSet
EndChar

StartChar: f
Encoding: 102 102 88
Width: 800
VWidth: 0
Flags: HW
LayerCount: 2
Fore
SplineSet
200 400 m 0
 200 510 290 600 400 600 c 0
 510 600 600 510 600 400 c 0
 600 290 510 200 400 200 c 0
 290 200 200 290 200 400 c 0
  Spiro
    200 400 o
    227.355 500.652 o
    299.348 572.645 o
    400 600 o
    500.652 572.645 o
    572.645 500.652 o
    600 400 o
    572.645 299.348 o
    500.652 227.355 o
    400 200 o
    299.348 227.355 o
    227.355 299.348 o
    0 0 z
  EndSpiro
EndSplineSet
EndChar

StartChar: g
Encoding: 103 103 89
Width: 800
VWidth: 0
Flags: HW
LayerCount: 2
Fore
SplineSet
400 299.094726562 m 5
 295.963867188 238.205078125 l 2
 292.05007703 235.914438322 287.04296875 235.298828125 282.654296875 238.48828125 c 0
 278.265625 241.676757812 277.159257377 245.965162696 278.2734375 251.05859375 c 2
 304.033203125 368.818359375 l 1
 213.975585938 448.946289062 l 2
 210.240124402 452.269881321 208.455078125 456.532226562 210.131835938 461.692382812 c 0
 211.807617188 466.8515625 215.973008259 469.272345208 220.733398438 469.744140625 c 2
 340.689453125 481.6328125 l 1
 389.06640625 592.044921875 l 2
 391.199222946 596.912710669 394.575195312 599.639648438 400 599.639648438 c 0
 405.424804688 599.639648438 408.800777054 596.912710669 410.93359375 592.044921875 c 2
 459.310546875 481.6328125 l 1
 579.267578125 469.743164062 l 2
 584.026903942 469.271439228 588.192382812 466.8515625 589.8671875 461.69140625 c 0
 591.544921875 456.532226562 589.760382315 452.269315092 586.024414062 448.9453125 c 2
 495.966796875 368.818359375 l 1
 521.7265625 251.057617188 l 2
 522.84052988 245.965116449 521.734375 241.676757812 517.34375 238.48828125 c 0
 512.95703125 235.298828125 507.949664077 235.913996783 504.03515625 238.205078125 c 2
 400 299.094726562 l 5
EndSplineSet
EndChar

StartChar: h
Encoding: 104 104 90
Width: 800
VWidth: 0
Flags: HW
LayerCount: 2
Fore
SplineSet
200 463 m 4
 200 518 245 583 300 583 c 4
 355 583 400 538 400 483 c 4
 400 538 445 583 500 583 c 4
 555 583 600 518 600 463 c 4
 600 408 478 287 400 183 c 5
 322 287 200 408 200 463 c 4
EndSplineSet
EndChar

StartChar: i
Encoding: 105 105 91
Width: 800
VWidth: 0
Flags: HW
LayerCount: 2
Fore
SplineSet
345 281.700195312 m 4
 345 251.700195312 370 226.700195312 400 226.700195312 c 4
 430 226.700195312 455 251.700195312 455 281.700195312 c 4
 455 311.700195312 421 362.700195312 400 396.700195312 c 29
 379 362.700195312 345 311.700195312 345 281.700195312 c 4
241.639648438 322.33984375 m 4
 241.639648438 411.17578125 302.509765625 443.25 310 587.700195312 c 5
 322.541015625 481.770507812 311.083984375 539.057617188 322 454.700195312 c 4
 329.387695312 397.61328125 337.05859375 420.8359375 355 484.700195312 c 4
 369.293945312 535.58203125 357.380859375 516.149414062 424 661.700195312 c 5
 421.578125 619.939453125 401.037109375 586.34765625 467.919921875 447.639648438 c 4
 492 397.700195312 462.360351562 417.298828125 508.370117188 567.099609375 c 5
 490.1796875 444.048828125 558.360351562 411.17578125 558.360351562 322.33984375 c 4
 558.360351562 233.502929688 487.740234375 162 400 162 c 4
 312.259765625 162 241.639648438 233.502929688 241.639648438 322.33984375 c 4
EndSplineSet
EndChar

StartChar: j
Encoding: 106 106 92
Width: 800
VWidth: 0
Flags: HW
LayerCount: 2
Fore
SplineSet
387 652 m 1
 251 368 l 1
 421 368 l 1
 335.5 130 l 5
 549 430.599609375 l 1
 379 430.599609375 l 1
 522.5 652 l 1
 387 652 l 1
EndSplineSet
EndChar

StartChar: k
Encoding: 107 107 93
Width: 800
VWidth: 0
Flags: HW
LayerCount: 2
Fore
SplineSet
461.6953125 293.139648438 m 1
 484.83203125 333.213867188 l 1
 505.201171875 321.453125 l 1
 475.274414062 269.620117188 l 1
 415.422851562 269.620117188 l 1
 415.422851562 293.139648438 l 1
 461.6953125 293.139648438 l 1
415.422851562 373.284179688 m 1
 466.322265625 343.8984375 l 1
 449.356445312 314.512695312 l 1
 415.422851562 314.512695312 l 1
 415.422851562 373.284179688 l 1
350.643554688 314.512695312 m 1
 333.677734375 343.8984375 l 1
 384.577148438 373.28515625 l 1
 384.578125 314.512695312 l 1
 350.643554688 314.512695312 l 1
324.725585938 269.620117188 m 1
 294.798828125 321.453125 l 1
 315.16796875 333.213867188 l 1
 338.3046875 293.139648438 l 1
 384.577148438 293.139648438 l 1
 384.577148438 269.620117188 l 1
 324.725585938 269.620117188 l 1
523.390625 400 m 1
 500.255859375 440.072265625 l 1
 520.624023438 451.833007812 l 1
 550.548828125 399.999023438 l 1
 520.624023438 348.166992188 l 1
 500.255859375 359.927734375 l 1
 523.390625 400 l 1
430.84765625 400 m 1
 481.74609375 429.385742188 l 1
 498.711914062 400 l 1
 481.74609375 370.614257812 l 1
 430.84765625 400 l 1
214.9140625 400.001953125 m 1
 253.47265625 333.212890625 l 1
 212.7578125 309.705078125 l 1
 134.973632812 330.529296875 l 1
 126.990234375 300.732421875 l 1
 174.954101562 287.880859375 l 1
 131.951171875 263.051757812 l 1
 139.6640625 249.694335938 l 1
 147.375 236.3359375 l 1
 190.377929688 261.1640625 l 1
 177.525390625 213.201171875 l 1
 207.323242188 205.215820312 l 1
 228.181640625 282.990234375 l 1
 268.897460938 306.497070312 l 1
 307.458984375 239.7109375 l 1
 384.577148438 239.709960938 l 1
 384.577148438 192.696289062 l 1
 327.651367188 135.745117188 l 1
 349.46484375 113.931640625 l 1
 384.577148438 149.043945312 l 1
 384.577148438 99.388671875 l 1
 400.001953125 99.3896484375 l 1
 415.423828125 99.388671875 l 1
 415.423828125 149.043945312 l 1
 450.536132812 113.932617188 l 1
 472.348632812 135.745117188 l 1
 415.423828125 192.6953125 l 1
 415.423828125 239.7109375 l 1
 492.541992188 239.709960938 l 1
 531.103515625 306.498046875 l 1
 571.818359375 282.991210938 l 1
 592.676757812 205.216796875 l 1
 622.473632812 213.202148438 l 1
 609.622070312 261.165039062 l 1
 652.625 236.336914062 l 1
 660.336914062 249.6953125 l 1
 668.049804688 263.051757812 l 1
 625.045898438 287.880859375 l 1
 673.009765625 300.731445312 l 1
 665.026367188 330.529296875 l 1
 587.243164062 309.705078125 l 1
 546.52734375 333.213867188 l 1
 585.0859375 400.000976562 l 1
 546.52734375 466.787109375 l 1
 587.2421875 490.294921875 l 1
 665.025390625 469.470703125 l 1
 673.009765625 499.267578125 l 1
 625.045898438 512.119140625 l 1
 668.048828125 536.948242188 l 1
 660.3359375 550.305664062 l 1
 652.625 563.6640625 l 1
 609.622070312 538.8359375 l 1
 622.474609375 586.798828125 l 1
 592.676757812 594.784179688 l 1
 571.818359375 517.009765625 l 1
 531.102539062 493.502929688 l 1
 492.541015625 560.2890625 l 1
 415.422851562 560.290039062 l 1
 415.422851562 607.303710938 l 1
 472.348632812 664.254882812 l 1
 450.53515625 686.068359375 l 1
 415.422851562 650.956054688 l 1
 415.422851562 700.611328125 l 1
 399.998046875 700.610351562 l 1
 384.576171875 700.611328125 l 1
 384.576171875 650.956054688 l 1
 349.463867188 686.067382812 l 1
 327.651367188 664.254882812 l 1
 384.576171875 607.3046875 l 1
 384.576171875 560.2890625 l 1
 307.458007812 560.290039062 l 1
 268.896484375 493.501953125 l 1
 228.181640625 517.008789062 l 1
 207.323242188 594.783203125 l 1
 177.526367188 586.797851562 l 1
 190.377929688 538.834960938 l 1
 147.375 563.663085938 l 1
 139.663085938 550.3046875 l 1
 131.950195312 536.948242188 l 1
 174.954101562 512.119140625 l 1
 126.990234375 499.268554688 l 1
 134.973632812 469.470703125 l 1
 212.756835938 490.294921875 l 1
 253.47265625 466.786132812 l 1
 214.9140625 400.001953125 l 1
338.3046875 506.860351562 m 1
 315.16796875 466.786132812 l 1
 294.798828125 478.546875 l 1
 324.725585938 530.379882812 l 1
 384.577148438 530.379882812 l 1
 384.577148438 506.860351562 l 1
 338.3046875 506.860351562 l 1
384.577148438 426.715820312 m 1
 333.677734375 456.1015625 l 1
 350.643554688 485.487304688 l 1
 384.577148438 485.487304688 l 1
 384.577148438 426.715820312 l 1
449.356445312 485.487304688 m 1
 466.322265625 456.1015625 l 1
 415.422851562 426.71484375 l 1
 415.421875 485.487304688 l 1
 449.356445312 485.487304688 l 1
475.274414062 530.379882812 m 1
 505.201171875 478.546875 l 1
 484.83203125 466.786132812 l 1
 461.6953125 506.860351562 l 1
 415.422851562 506.860351562 l 1
 415.422851562 530.379882812 l 1
 475.274414062 530.379882812 l 1
276.609375 400 m 1
 299.744140625 359.927734375 l 1
 279.375976562 348.166992188 l 1
 249.451171875 400.000976562 l 1
 279.375976562 451.833007812 l 1
 299.744140625 440.072265625 l 1
 276.609375 400 l 1
369.15234375 400 m 1
 318.25390625 370.614257812 l 1
 301.288085938 400 l 1
 318.25390625 429.385742188 l 1
 369.15234375 400 l 1
EndSplineSet
EndChar

StartChar: l
Encoding: 108 108 94
Width: 800
VWidth: 0
Flags: HW
LayerCount: 2
Fore
SplineSet
447.16796875 280.021484375 m 4
 459.6640625 308.05859375 479.426757812 322.67578125 491.984375 312.631835938 c 4
 504.541015625 302.588867188 504.311523438 272.346679688 491.81640625 244.310546875 c 4
 479.3203125 216.274414062 459.557617188 201.657226562 447 211.700195312 c 4
 434.442382812 221.744140625 434.672851562 251.985351562 447.16796875 280.021484375 c 4
241.639648438 314.33984375 m 4
 241.639648438 225.502929688 312.259765625 154 400 154 c 4
 487.740234375 154 558.360351562 225.502929688 558.360351562 314.33984375 c 4
 558.360351562 403.17578125 465 546.700195312 400 653.700195312 c 29
 341 546.700195312 241.639648438 403.17578125 241.639648438 314.33984375 c 4
EndSplineSet
EndChar

StartChar: m
Encoding: 109 109 95
Width: 800
VWidth: 0
Flags: HW
LayerCount: 2
Fore
SplineSet
394 251 m 1
 385 251 380 257.719726562 380 266 c 1
 380 452.724609375 l 1
 348.377929688 461.533203125 325 490.668945312 325 525 c 0
 325 566.25 358.75 600 400 600 c 0
 441.25 600 475 566.25 475 525 c 0
 475 487.83203125 447.598632812 456.752929688 412 450.965820312 c 1
 412 342 l 1
 462 342 l 1
 471 342 476 335.280273438 476 327 c 27
 476 320 472 312 462 312 c 1
 412 312 l 1
 412 281 l 1
 462 281 l 1
 471 281 476 274.280273438 476 266 c 27
 476 259 472 251 462 251 c 1
 394 251 l 1
355.450195312 525 m 0
 355.450195312 500.55859375 375.55859375 480.450195312 400 480.450195312 c 0
 424.44140625 480.450195312 444.549804688 500.55859375 444.549804688 525 c 0
 444.549804688 549.44140625 424.44140625 569.549804688 400 569.549804688 c 0
 375.55859375 569.549804688 355.450195312 549.44140625 355.450195312 525 c 0
EndSplineSet
EndChar

StartChar: n
Encoding: 110 110 96
Width: 800
VWidth: 0
Flags: HW
LayerCount: 2
Fore
SplineSet
540 422 m 1049
462 400 m 1,0,0
 462 464.120117188 l 0,1,2
 462 498.120117188 434 526.120117188 400 526.120117188 c 0,3,4
 366 526.120117188 338 498.120117188 338 464.120117188 c 0,5,-1
 338 400 l 1,0,0
 462 400 l 1,0,0
492 400 m 1,0,0
 500 400 l 2,1,2
 527 400 550 378 550 350 c 2,3,-1
 550 251 l 2,4,5
 550 223 528 201 500 201 c 2,6,-1
 300 201 l 2,7,8
 272 201 250 223 250 251 c 2,9,-1
 250 350 l 2,10,11
 250 378 272 400 300 400 c 2,12,-1
 308 400 l 1,0,0
 308 464 l 0,1,2
 308 515 349 556.120117188 400 556.120117188 c 0,3,4
 451 556.120117188 492 515 492 464 c 0,5,-1
 492 400 l 1,0,0
415 306.879655455 m 1,0,1
 421.104732175 311.400222216 425 318.668938223 425 327 c 0,2,3
 425 341 414 352 400 352 c 0,4,5
 386 352 375 341 375 327 c 0,6,7
 375 318.668938223 378.895267825 311.400222216 385 306.879655455 c 1,8,-1
 385 258 l 2,9,10
 385 249 391.719726562 244 400 244 c 0,11,12
 407 244 415 248 415 258 c 2,13,-1
 415 306.879655455 l 1,0,1
EndSplineSet
EndChar

StartChar: o
Encoding: 111 111 97
Width: 800
VWidth: 0
Flags: HW
LayerCount: 2
Fore
SplineSet
308 400 m 5
 308 530 l 0
 308 581 349 622.120117188 400 622.120117188 c 0
 451 622.120117188 492 581 492 530 c 0
 492 466 l 1
 462 466 l 1
 462 530.120117188 l 0
 462 564.120117188 434 592.120117188 400 592.120117188 c 0
 366 592.120117188 338 564.120117188 338 530.120117188 c 0
 338 400 l 1
 500 400 l 2
 528 400 550 378 550 350 c 2
 550 251 l 2
 550 223 528 201 500 201 c 2
 300 201 l 2
 272 201 250 223 250 251 c 2
 250 350 l 2
 250 378 273.647058824 400 300 400 c 2
 308 400 l 5
415 306.879655455 m 1
 421.104732175 311.400222216 425 318.668938223 425 327 c 0
 425 341 414 352 400 352 c 0
 386 352 375 341 375 327 c 0
 375 318.668938223 378.895267825 311.400222216 385 306.879655455 c 1
 385 258 l 2
 385 249 391.719726562 244 400 244 c 0
 407 244 415 248 415 258 c 2
 415 306.879655455 l 1
EndSplineSet
EndChar

StartChar: p
Encoding: 112 112 98
Width: 800
VWidth: 0
Flags: HW
LayerCount: 2
Fore
SplineSet
375 500 m 5
 225 500 l 6
 197 500 175 478 175 450 c 6
 175 350 l 6
 175 322 197 300 225 300 c 6
 375 300 l 5
 345 300 322 345 322 400 c 4
 322 455 345 500 375 500 c 5
425 300 m 5
 575 300 l 6
 603 300 625 322 625 350 c 6
 625 450 l 6
 625 478 603 500 575 500 c 6
 425 500 l 5
 455 500 479 455 479 400 c 4
 479 345 455 300 425 300 c 5
400 310 m 5
 370 310 347 350.5 347 400 c 4
 347 449.5 370 490 400 490 c 5
 430 490 454 449.5 454 400 c 4
 454 350.5 430 310 400 310 c 5
EndSplineSet
EndChar

StartChar: q
Encoding: 113 113 99
Width: 800
VWidth: 0
Flags: HW
LayerCount: 2
Fore
SplineSet
200 528 m 6
 600 528 l 6
 628 528 650 506 650 478 c 6
 650 328 l 6
 650 300 628 278 600 278 c 6
 200 278 l 6
 172.120117188 278 150 300 150 328 c 6
 150 478 l 6
 150 506 172.120117188 528 200 528 c 6
375 500 m 1
 225 500 l 2
 197 500 175 478 175 450 c 2
 175 350 l 2
 175 322 197 300 225 300 c 2
 375 300 l 1
 345 300 322 345 322 400 c 0
 322 455 345 500 375 500 c 1
425 300 m 1
 575 300 l 2
 603 300 625 322 625 350 c 2
 625 450 l 2
 625 478 603 500 575 500 c 2
 425 500 l 1
 455 500 479 455 479 400 c 0
 479 345 455 300 425 300 c 1
400 310 m 1
 430 310 454 350.5 454 400 c 0
 454 449.5 430 490 400 490 c 1
 370 490 347 449.5 347 400 c 0
 347 350.5 370 310 400 310 c 1
EndSplineSet
EndChar

StartChar: r
Encoding: 114 114 100
Width: 800
VWidth: 0
Flags: HW
LayerCount: 2
Fore
SplineSet
528.056640625 239.799804688 m 4
 528.056640625 223 514.857421875 209.799804688 498.056640625 209.799804688 c 4
 481.256835938 209.799804688 468.056640625 223 468.056640625 239.799804688 c 4
 468.056640625 256.599609375 481.256835938 269.799804688 498.056640625 269.799804688 c 4
 514.857421875 269.799804688 528.056640625 256.599609375 528.056640625 239.799804688 c 4
326.45703125 239.80078125 m 4
 326.45703125 256.6015625 339.657226562 269.80078125 356.45703125 269.80078125 c 4
 373.256835938 269.80078125 386.45703125 256.6015625 386.45703125 239.80078125 c 4
 386.45703125 223.000976562 373.256835938 209.80078125 356.45703125 209.80078125 c 4
 339.657226562 209.80078125 326.45703125 223.000976562 326.45703125 239.80078125 c 4
219.65625 596.200195312 m 6
 259.256835938 596.200195312 l 5
 259.256835938 596.200195312 267.657226562 596.200195312 272.45703125 590.200195312 c 4
 277.256835938 584.200195312 278.45703125 575.799804688 278.45703125 575.799804688 c 5
 290.45703125 519.401367188 l 5
 579.657226562 519.400390625 l 5
 579.657226562 519.400390625 585.657226562 519.400390625 591.657226562 513.400390625 c 4
 597.08984375 507.966796875 595.811523438 500.100585938 595.811523438 500.100585938 c 5
 551.592773438 299.106445312 l 5
 551.592773438 299.106445312 549.657226562 289 543.657226562 284.200195312 c 28
 537.657226562 279.400390625 528.806640625 279.400390625 528.806640625 279.400390625 c 5
 325.256835938 279.400390625 l 5
 325.256835938 279.400390625 316.407226562 279.400390625 310.407226562 284.200195312 c 4
 304.407226562 289 302.470703125 299.106445312 302.470703125 299.106445312 c 5
 246.056640625 563.80078125 l 5
 219.657226562 563.80078125 l 6
 208.857421875 563.80078125 204.056640625 568.545898438 204.056640625 581.799804688 c 7
 204.056640625 596.25 219.65625 596.200195312 219.65625 596.200195312 c 6
299.23828125 483.401367188 m 5
 336.197265625 315.401367188 l 5
 518.31640625 315.400390625 l 5
 555.276367188 483.400390625 l 5
 299.23828125 483.401367188 l 5
EndSplineSet
EndChar

StartChar: s
Encoding: 115 115 101
Width: 800
VWidth: 0
Flags: HW
LayerCount: 2
Fore
SplineSet
528.056640625 239.799804688 m 0
 528.056640625 223 514.857421875 209.799804688 498.056640625 209.799804688 c 0
 481.256835938 209.799804688 468.056640625 223 468.056640625 239.799804688 c 0
 468.056640625 256.599609375 481.256835938 269.799804688 498.056640625 269.799804688 c 0
 514.857421875 269.799804688 528.056640625 256.599609375 528.056640625 239.799804688 c 0
326.45703125 239.80078125 m 0
 326.45703125 256.6015625 339.657226562 269.80078125 356.45703125 269.80078125 c 0
 373.256835938 269.80078125 386.45703125 256.6015625 386.45703125 239.80078125 c 0
 386.45703125 223.000976562 373.256835938 209.80078125 356.45703125 209.80078125 c 0
 339.657226562 209.80078125 326.45703125 223.000976562 326.45703125 239.80078125 c 0
219.65625 596.200195312 m 2
 259.256835938 596.200195312 l 1
 259.256835938 596.200195312 267.657226562 596.200195312 272.45703125 590.200195312 c 0
 277.256835938 584.200195312 278.45703125 575.799804688 278.45703125 575.799804688 c 1
 290.45703125 519.401367188 l 1
 579.657226562 519.400390625 l 1
 579.657226562 519.400390625 585.657226562 519.400390625 591.657226562 513.400390625 c 0
 597.08984375 507.966796875 595.811523438 500.100585938 595.811523438 500.100585938 c 1
 551.592773438 299.106445312 l 1
 551.592773438 299.106445312 549.657226562 289 543.657226562 284.200195312 c 24
 537.657226562 279.400390625 528.806640625 279.400390625 528.806640625 279.400390625 c 1
 325.256835938 279.400390625 l 1
 325.256835938 279.400390625 316.407226562 279.400390625 310.407226562 284.200195312 c 0
 304.407226562 289 302.470703125 299.106445312 302.470703125 299.106445312 c 1
 246.056640625 563.80078125 l 1
 219.657226562 563.80078125 l 2
 208.857421875 563.80078125 204.056640625 568.545898438 204.056640625 581.799804688 c 3
 204.056640625 596.25 219.65625 596.200195312 219.65625 596.200195312 c 2
EndSplineSet
EndChar

